<?xml version="1.0" encoding="UTF-8"?>
<svg xmlns="http://www.w3.org/2000/svg" xmlns:xlink="http://www.w3.org/1999/xlink" width="107.893" height="107.893" viewBox="0 0 107.893 107.893">
<path fill="none" stroke-width="1.59404" stroke-linecap="butt" stroke-linejoin="miter" stroke="rgb(0%, 0%, 100%)" stroke-opacity="1" stroke-miterlimit="10" d="M 42.518938 -0.00040625 C 42.518938 23.483969 23.483781 42.519125 -0.00059375 42.519125 C -23.484969 42.519125 -42.520125 23.483969 -42.520125 -0.00040625 C -42.520125 -23.484781 -23.484969 -42.519937 -0.00059375 -42.519937 C 23.483781 -42.519937 42.518938 -23.484781 42.518938 -0.00040625 Z M 42.518938 -0.00040625 " transform="matrix(1, 0, 0, -1, 43.317, 43.316)"/>
<path fill="none" stroke-width="1.59404" stroke-linecap="butt" stroke-linejoin="miter" stroke="rgb(0%, 0%, 100%)" stroke-opacity="1" stroke-miterlimit="10" d="M 63.780656 -21.258219 C 63.780656 2.22225 44.7455 21.261313 21.261125 21.261313 C -2.22325 21.261313 -21.258406 2.22225 -21.258406 -21.258219 C -21.258406 -44.742594 -2.22325 -63.781656 21.261125 -63.781656 C 44.7455 -63.781656 63.780656 -44.742594 63.780656 -21.258219 Z M 63.780656 -21.258219 " transform="matrix(1, 0, 0, -1, 43.317, 43.316)"/>
<path fill-rule="nonzero" fill="rgb(100%, 50%, 0%)" fill-opacity="1" stroke-width="1.19553" stroke-linecap="butt" stroke-linejoin="miter" stroke="rgb(100%, 50%, 0%)" stroke-opacity="1" stroke-miterlimit="10" d="M 41.58925 17.495688 C 41.58925 19.062094 40.319719 20.331625 38.757219 20.331625 C 37.190813 20.331625 35.921281 19.062094 35.921281 17.495688 C 35.921281 15.929281 37.190813 14.65975 38.757219 14.65975 C 40.319719 14.65975 41.58925 15.929281 41.58925 17.495688 Z M 41.58925 17.495688 " transform="matrix(1, 0, 0, -1, 43.317, 43.316)"/>
<path fill-rule="nonzero" fill="rgb(100%, 50%, 0%)" fill-opacity="1" stroke-width="1.19553" stroke-linecap="butt" stroke-linejoin="miter" stroke="rgb(100%, 50%, 0%)" stroke-opacity="1" stroke-miterlimit="10" d="M -14.66075 -38.754312 C -14.66075 -37.191812 -15.930281 -35.922281 -17.496687 -35.922281 C -19.063094 -35.922281 -20.328719 -37.191812 -20.328719 -38.754312 C -20.328719 -40.320719 -19.063094 -41.59025 -17.496687 -41.59025 C -15.930281 -41.59025 -14.66075 -40.320719 -14.66075 -38.754312 Z M -14.66075 -38.754312 " transform="matrix(1, 0, 0, -1, 43.317, 43.316)"/>
</svg>
