<?xml version="1.0" encoding="UTF-8"?>
<svg xmlns="http://www.w3.org/2000/svg" xmlns:xlink="http://www.w3.org/1999/xlink" width="114.98" height="114.98" viewBox="0 0 114.98 114.98">
<defs>
<clipPath id="clip-0">
<path clip-rule="nonzero" d="M 0 6 L 114.980469 6 L 114.980469 109 L 0 109 Z M 0 6 "/>
</clipPath>
<clipPath id="clip-1">
<path clip-rule="nonzero" d="M 20 0 L 95 0 L 95 114.980469 L 20 114.980469 Z M 20 0 "/>
</clipPath>
</defs>
<g clip-path="url(#clip-0)">
<path fill="none" stroke-width="1.59404" stroke-linecap="butt" stroke-linejoin="miter" stroke="rgb(0%, 0%, 100%)" stroke-opacity="1" stroke-miterlimit="10" d="M -56.693125 -28.345937 L 56.693594 28.345469 " transform="matrix(1, 0, 0, -1, 57.49, 57.49)"/>
</g>
<g clip-path="url(#clip-1)">
<path fill="none" stroke-width="1.59404" stroke-linecap="butt" stroke-linejoin="miter" stroke="rgb(0%, 0%, 100%)" stroke-opacity="1" stroke-miterlimit="10" d="M -14.173594 -56.693594 L 14.174062 56.693125 " transform="matrix(1, 0, 0, -1, 57.49, 57.49)"/>
</g>
<path fill-rule="nonzero" fill="rgb(100%, 50%, 0%)" fill-opacity="1" stroke-width="1.19553" stroke-linecap="butt" stroke-linejoin="miter" stroke="rgb(100%, 50%, 0%)" stroke-opacity="1" stroke-miterlimit="10" d="M 2.834219 0.00171875 C 2.834219 1.564219 1.564687 2.83375 -0.00171875 2.83375 C -1.564219 2.83375 -2.83375 1.564219 -2.83375 0.00171875 C -2.83375 -1.564687 -1.564219 -2.834219 -0.00171875 -2.834219 C 1.564687 -2.834219 2.834219 -1.564687 2.834219 0.00171875 Z M 2.834219 0.00171875 " transform="matrix(1, 0, 0, -1, 57.49, 57.49)"/>
</svg>
