<?xml version="1.0" encoding="UTF-8"?>
<svg xmlns="http://www.w3.org/2000/svg" xmlns:xlink="http://www.w3.org/1999/xlink" width="107.893" height="107.893" viewBox="0 0 107.893 107.893">
<path fill="none" stroke-width="1.59404" stroke-linecap="butt" stroke-linejoin="miter" stroke="rgb(0%, 0%, 100%)" stroke-opacity="1" stroke-miterlimit="10" d="M 63.780656 -21.258219 C 63.780656 2.22225 44.7455 21.261313 21.261125 21.261313 C -2.22325 21.261313 -21.258406 2.22225 -21.258406 -21.258219 C -21.258406 -44.742594 -2.22325 -63.781656 21.261125 -63.781656 C 44.7455 -63.781656 63.780656 -44.742594 63.780656 -21.258219 Z M 63.780656 -21.258219 " transform="matrix(1, 0, 0, -1, 43.317, 43.316)"/>
<path fill="none" stroke-width="1.59404" stroke-linecap="butt" stroke-linejoin="miter" stroke="rgb(0%, 0%, 100%)" stroke-opacity="1" stroke-miterlimit="10" d="M -42.520125 -42.519937 L 42.518938 42.519125 " transform="matrix(1, 0, 0, -1, 43.317, 43.316)"/>
<path fill-rule="nonzero" fill="rgb(100%, 50%, 0%)" fill-opacity="1" stroke-width="1.19553" stroke-linecap="butt" stroke-linejoin="miter" stroke="rgb(100%, 50%, 0%)" stroke-opacity="1" stroke-miterlimit="10" d="M -18.426375 -21.258219 C -18.426375 -19.695719 -19.695906 -18.426187 -21.258406 -18.426187 C -22.824812 -18.426187 -24.094344 -19.695719 -24.094344 -21.258219 C -24.094344 -22.824625 -22.824812 -24.094156 -21.258406 -24.094156 C -19.695906 -24.094156 -18.426375 -22.824625 -18.426375 -21.258219 Z M -18.426375 -21.258219 " transform="matrix(1, 0, 0, -1, 43.317, 43.316)"/>
<path fill-rule="nonzero" fill="rgb(100%, 50%, 0%)" fill-opacity="1" stroke-width="1.19553" stroke-linecap="butt" stroke-linejoin="miter" stroke="rgb(100%, 50%, 0%)" stroke-opacity="1" stroke-miterlimit="10" d="M 24.093156 21.261313 C 24.093156 22.823813 22.827531 24.093344 21.261125 24.093344 C 19.694719 24.093344 18.425188 22.823813 18.425188 21.261313 C 18.425188 19.694906 19.694719 18.425375 21.261125 18.425375 C 22.827531 18.425375 24.093156 19.694906 24.093156 21.261313 Z M 24.093156 21.261313 " transform="matrix(1, 0, 0, -1, 43.317, 43.316)"/>
</svg>
