<?xml version="1.0" standalone="no"?>
<!DOCTYPE svg PUBLIC "-//W3C//DTD SVG 20010904//EN"
 "http://www.w3.org/TR/2001/REC-SVG-20010904/DTD/svg10.dtd">
<svg version="1.0" xmlns="http://www.w3.org/2000/svg"
 width="512.000000pt" height="512.000000pt" viewBox="0 0 512.000000 512.000000"
 preserveAspectRatio="xMidYMid meet">
<metadata>
Created by potrace 1.14, written by Peter Selinger 2001-2017
</metadata>
<g transform="translate(0.000000,512.000000) scale(0.100000,-0.100000)"
fill="#000000" stroke="none">
<path d="M315 4446 c-35 -16 -86 -60 -166 -142 -95 -98 -119 -128 -133 -171
-20 -60 -16 -133 11 -191 10 -24 240 -261 625 -647 l608 -609 -608 -611 c-416
-417 -615 -623 -627 -650 -24 -52 -27 -123 -8 -188 13 -45 31 -68 142 -178
107 -107 134 -129 179 -143 63 -21 143 -16 198 12 19 10 395 378 835 817 711
712 802 806 818 850 24 65 21 146 -8 203 -15 29 -282 302 -815 835 -611 612
-803 798 -839 815 -64 30 -146 29 -212 -2z"/>
<path d="M1670 1359 c-93 -15 -167 -79 -195 -171 -21 -69 -20 -311 2 -373 21
-62 74 -118 135 -145 l53 -23 1625 0 1625 0 49 21 c69 31 122 89 142 158 23
80 17 343 -10 394 -36 68 -89 112 -166 136 -31 10 -3197 12 -3260 3z"/>
</g>
</svg>
