<?xml version="1.0" encoding="UTF-8" standalone="no"?>
<svg
   xmlns:dc="http://purl.org/dc/elements/1.1/"
   xmlns:cc="http://creativecommons.org/ns#"
   xmlns:rdf="http://www.w3.org/1999/02/22-rdf-syntax-ns#"
   xmlns:svg="http://www.w3.org/2000/svg"
   xmlns="http://www.w3.org/2000/svg"
   viewBox="0 0 2304 1216"
   height="1216"
   width="2304"
   xml:space="preserve"
   id="svg2"
   version="1.1"><metadata
     id="metadata8"><rdf:RDF><cc:Work
         rdf:about=""><dc:format>image/svg+xml</dc:format><dc:type
           rdf:resource="http://purl.org/dc/dcmitype/StillImage" /></cc:Work></rdf:RDF></metadata><defs
     id="defs6"><clipPath
       id="clipPath20"
       clipPathUnits="userSpaceOnUse"><path
         id="path18"
         d="M 0,0 H 1920 V 1080 H 0 Z" /></clipPath><clipPath
       id="clipPath30"
       clipPathUnits="userSpaceOnUse"><path
         id="path28"
         d="M 0,0 H 1920 V 1080 H 0 Z" /></clipPath><clipPath
       id="clipPath40"
       clipPathUnits="userSpaceOnUse"><path
         id="path38"
         d="m 824.4208,393.1937 h 230.3461 V 523.664 H 824.4208 Z" /></clipPath><clipPath
       id="clipPath50"
       clipPathUnits="userSpaceOnUse"><path
         id="path48"
         d="m 824.4208,393.1937 h 230.3461 V 523.664 H 824.4208 Z" /></clipPath><clipPath
       id="clipPath60"
       clipPathUnits="userSpaceOnUse"><path
         id="path58"
         d="m 1051.819,523.9021 28.868,-0.0715 -0.324,-130.8652 -28.868,0.0715 z" /></clipPath><clipPath
       id="clipPath66"
       clipPathUnits="userSpaceOnUse"><path
         id="path64"
         d="M 0,0 H 1920 V 1080 H 0 Z" /></clipPath><clipPath
       id="clipPath76"
       clipPathUnits="userSpaceOnUse"><path
         id="path74"
         d="m 1051.819,523.9021 28.868,-0.0715 -0.324,-130.8652 -28.868,0.0715 z" /></clipPath><clipPath
       id="clipPath82"
       clipPathUnits="userSpaceOnUse"><path
         id="path80"
         d="M 0,0 H 1920 V 1080 H 0 Z" /></clipPath><clipPath
       id="clipPath92"
       clipPathUnits="userSpaceOnUse"><path
         id="path90"
         d="m 827.7531,523.824 -28.8506,0.0715 -0.3242,-130.8587 28.8506,-0.0714 z" /></clipPath><clipPath
       id="clipPath98"
       clipPathUnits="userSpaceOnUse"><path
         id="path96"
         d="M 0,0 H 1920 V 1080 H 0 Z" /></clipPath><clipPath
       id="clipPath108"
       clipPathUnits="userSpaceOnUse"><path
         id="path106"
         d="m 827.7531,523.824 -28.8506,0.0715 -0.3242,-130.8587 28.8506,-0.0714 z" /></clipPath><clipPath
       id="clipPath114"
       clipPathUnits="userSpaceOnUse"><path
         id="path112"
         d="M 0,0 H 1920 V 1080 H 0 Z" /></clipPath><clipPath
       id="clipPath124"
       clipPathUnits="userSpaceOnUse"><path
         id="path122"
         d="m 797.042,490.5616 h 285.1036 v 59.10573 H 797.042 Z" /></clipPath><clipPath
       id="clipPath134"
       clipPathUnits="userSpaceOnUse"><path
         id="path132"
         d="m 797.042,490.5616 h 285.1036 v 59.10573 H 797.042 Z" /></clipPath><clipPath
       id="clipPath144"
       clipPathUnits="userSpaceOnUse"><path
         id="path142"
         d="m 797.042,490.5616 h 285.1036 v 59.10573 H 797.042 Z" /></clipPath><clipPath
       id="clipPath154"
       clipPathUnits="userSpaceOnUse"><path
         id="path152"
         d="m 823.2639,366.9294 h 232.6599 v 59.10573 H 823.2639 Z" /></clipPath><clipPath
       id="clipPath164"
       clipPathUnits="userSpaceOnUse"><path
         id="path162"
         d="m 823.2639,366.9294 h 232.6599 v 59.10573 H 823.2639 Z" /></clipPath><clipPath
       id="clipPath174"
       clipPathUnits="userSpaceOnUse"><path
         id="path172"
         d="m 823.2639,366.9294 h 232.6599 v 59.10573 H 823.2639 Z" /></clipPath><clipPath
       id="clipPath184"
       clipPathUnits="userSpaceOnUse"><path
         id="path182"
         d="M 0,0 H 1920 V 1080 H 0 Z" /></clipPath><clipPath
       id="clipPath204"
       clipPathUnits="userSpaceOnUse"><path
         id="path202"
         d="m 1041.974,335.284 h 121.4678 V 452.5551 H 1041.974 Z" /></clipPath><clipPath
       id="clipPath214"
       clipPathUnits="userSpaceOnUse"><path
         id="path212"
         d="m 1041.974,335.284 h 121.4678 V 452.5551 H 1041.974 Z" /></clipPath><clipPath
       id="clipPath224"
       clipPathUnits="userSpaceOnUse"><path
         id="path222"
         d="M 0,0 H 1920 V 1080 H 0 Z" /></clipPath><clipPath
       id="clipPath244"
       clipPathUnits="userSpaceOnUse"><path
         id="path242"
         d="M 0,0 H 1920 V 1080 H 0 Z" /></clipPath><clipPath
       id="clipPath250"
       clipPathUnits="userSpaceOnUse"><path
         id="path248"
         d="m 929,514 h 21 v 285 h -21 z" /></clipPath><clipPath
       id="clipPath254"
       clipPathUnits="userSpaceOnUse"><path
         id="path252"
         d="m 929,514 h 21 v 285 h -21 z" /></clipPath><clipPath
       id="clipPath282"
       clipPathUnits="userSpaceOnUse"><path
         id="path280"
         d="M 0,0 H 1920 V 1080 H 0 Z" /></clipPath><clipPath
       id="clipPath288"
       clipPathUnits="userSpaceOnUse"><path
         id="path286"
         d="m 905,621 h 69 v 111 h -69 z" /></clipPath><clipPath
       id="clipPath292"
       clipPathUnits="userSpaceOnUse"><path
         id="path290"
         d="m 905,621 h 69 v 111 h -69 z" /></clipPath><clipPath
       id="clipPath320"
       clipPathUnits="userSpaceOnUse"><path
         id="path318"
         d="M 164.702,397.1876 H 395.0481 V 527.6579 H 164.702 Z" /></clipPath><clipPath
       id="clipPath330"
       clipPathUnits="userSpaceOnUse"><path
         id="path328"
         d="M 164.702,397.1876 H 395.0481 V 527.6579 H 164.702 Z" /></clipPath><clipPath
       id="clipPath340"
       clipPathUnits="userSpaceOnUse"><path
         id="path338"
         d="m 112.4349,617.3844 h 334.8803 v 63.10573 H 112.4349 Z" /></clipPath><clipPath
       id="clipPath352"
       clipPathUnits="userSpaceOnUse"><path
         id="path350"
         d="m 392.1003,527.896 28.8678,-0.0715 -0.3242,-130.8652 -28.8678,0.0715 z" /></clipPath><clipPath
       id="clipPath358"
       clipPathUnits="userSpaceOnUse"><path
         id="path356"
         d="M 0,0 H 1920 V 1080 H 0 Z" /></clipPath><clipPath
       id="clipPath368"
       clipPathUnits="userSpaceOnUse"><path
         id="path366"
         d="m 392.1003,527.896 28.8678,-0.0715 -0.3242,-130.8652 -28.8678,0.0715 z" /></clipPath><clipPath
       id="clipPath374"
       clipPathUnits="userSpaceOnUse"><path
         id="path372"
         d="M 0,0 H 1920 V 1080 H 0 Z" /></clipPath><clipPath
       id="clipPath384"
       clipPathUnits="userSpaceOnUse"><path
         id="path382"
         d="m 168.0343,527.8179 -28.8506,0.0715 -0.3242,-130.8587 28.8506,-0.0714 z" /></clipPath><clipPath
       id="clipPath390"
       clipPathUnits="userSpaceOnUse"><path
         id="path388"
         d="M 0,0 H 1920 V 1080 H 0 Z" /></clipPath><clipPath
       id="clipPath400"
       clipPathUnits="userSpaceOnUse"><path
         id="path398"
         d="m 168.0343,527.8179 -28.8506,0.0715 -0.3242,-130.8587 28.8506,-0.0714 z" /></clipPath><clipPath
       id="clipPath406"
       clipPathUnits="userSpaceOnUse"><path
         id="path404"
         d="M 0,0 H 1920 V 1080 H 0 Z" /></clipPath><clipPath
       id="clipPath416"
       clipPathUnits="userSpaceOnUse"><path
         id="path414"
         d="m 137.3233,494.5555 h 285.1036 v 59.10573 H 137.3233 Z" /></clipPath><clipPath
       id="clipPath426"
       clipPathUnits="userSpaceOnUse"><path
         id="path424"
         d="m 137.3233,494.5555 h 285.1036 v 59.10573 H 137.3233 Z" /></clipPath><clipPath
       id="clipPath436"
       clipPathUnits="userSpaceOnUse"><path
         id="path434"
         d="m 137.3233,494.5555 h 285.1036 v 59.10573 H 137.3233 Z" /></clipPath><clipPath
       id="clipPath446"
       clipPathUnits="userSpaceOnUse"><path
         id="path444"
         d="M 163.5451,370.9233 H 396.205 v 59.10573 H 163.5451 Z" /></clipPath><clipPath
       id="clipPath456"
       clipPathUnits="userSpaceOnUse"><path
         id="path454"
         d="M 163.5451,370.9233 H 396.205 v 59.10573 H 163.5451 Z" /></clipPath><clipPath
       id="clipPath466"
       clipPathUnits="userSpaceOnUse"><path
         id="path464"
         d="M 163.5451,370.9233 H 396.205 v 59.10573 H 163.5451 Z" /></clipPath><clipPath
       id="clipPath476"
       clipPathUnits="userSpaceOnUse"><path
         id="path474"
         d="M 161.5451,368.9233 H 398.205 v 63.10573 H 161.5451 Z" /></clipPath><clipPath
       id="clipPath488"
       clipPathUnits="userSpaceOnUse"><path
         id="path486"
         d="m 391.751,398.0375 50.0649,253.3051 5.8861,-1.1634 -50.0649,-253.3051 z" /></clipPath><clipPath
       id="clipPath494"
       clipPathUnits="userSpaceOnUse"><path
         id="path492"
         d="M 0,0 H 1920 V 1080 H 0 Z" /></clipPath><clipPath
       id="clipPath506"
       clipPathUnits="userSpaceOnUse"><path
         id="path504"
         d="m 161.9747,397.3515 -49.5033,251.0045 5.8866,1.1609 49.5033,-251.0045 z" /></clipPath><clipPath
       id="clipPath512"
       clipPathUnits="userSpaceOnUse"><path
         id="path510"
         d="M 0,0 H 1920 V 1080 H 0 Z" /></clipPath><clipPath
       id="clipPath524"
       clipPathUnits="userSpaceOnUse"><path
         id="path522"
         d="m 1489.131,669.4178 h 230.3461 v 186.649 H 1489.131 Z" /></clipPath><clipPath
       id="clipPath534"
       clipPathUnits="userSpaceOnUse"><path
         id="path532"
         d="m 1489.131,669.4178 h 230.3461 v 186.649 H 1489.131 Z" /></clipPath><clipPath
       id="clipPath544"
       clipPathUnits="userSpaceOnUse"><path
         id="path542"
         d="M 0,0 H 1920 V 1080 H 0 Z" /></clipPath><clipPath
       id="clipPath556"
       clipPathUnits="userSpaceOnUse"><path
         id="path554"
         d="m 1716.669,856.2919 40.118,-0.0994 -0.464,-186.9996 -40.117,0.0994 z" /></clipPath><clipPath
       id="clipPath562"
       clipPathUnits="userSpaceOnUse"><path
         id="path560"
         d="M 0,0 H 1920 V 1080 H 0 Z" /></clipPath><clipPath
       id="clipPath572"
       clipPathUnits="userSpaceOnUse"><path
         id="path570"
         d="m 1716.669,856.2919 40.118,-0.0994 -0.464,-186.9996 -40.117,0.0994 z" /></clipPath><clipPath
       id="clipPath578"
       clipPathUnits="userSpaceOnUse"><path
         id="path576"
         d="M 0,0 H 1920 V 1080 H 0 Z" /></clipPath><clipPath
       id="clipPath588"
       clipPathUnits="userSpaceOnUse"><path
         id="path586"
         d="m 1492.416,856.2017 -40.118,0.0993 -0.463,-187.0121 40.118,-0.0994 z" /></clipPath><clipPath
       id="clipPath594"
       clipPathUnits="userSpaceOnUse"><path
         id="path592"
         d="M 0,0 H 1920 V 1080 H 0 Z" /></clipPath><clipPath
       id="clipPath604"
       clipPathUnits="userSpaceOnUse"><path
         id="path602"
         d="m 1492.416,856.2017 -40.118,0.0993 -0.463,-187.0121 40.118,-0.0994 z" /></clipPath><clipPath
       id="clipPath610"
       clipPathUnits="userSpaceOnUse"><path
         id="path608"
         d="M 0,0 H 1920 V 1080 H 0 Z" /></clipPath><clipPath
       id="clipPath620"
       clipPathUnits="userSpaceOnUse"><path
         id="path618"
         d="m 1452.753,828.1985 h 303.1036 v 59.10572 H 1452.753 Z" /></clipPath><clipPath
       id="clipPath630"
       clipPathUnits="userSpaceOnUse"><path
         id="path628"
         d="m 1452.753,828.1985 h 303.1036 v 59.10572 H 1452.753 Z" /></clipPath><clipPath
       id="clipPath640"
       clipPathUnits="userSpaceOnUse"><path
         id="path638"
         d="m 1452.753,828.1985 h 303.1036 v 59.10572 H 1452.753 Z" /></clipPath><clipPath
       id="clipPath650"
       clipPathUnits="userSpaceOnUse"><path
         id="path648"
         d="m 1487.975,643.1536 h 232.6599 v 59.10573 H 1487.975 Z" /></clipPath><clipPath
       id="clipPath660"
       clipPathUnits="userSpaceOnUse"><path
         id="path658"
         d="m 1487.975,643.1536 h 232.6599 v 59.10573 H 1487.975 Z" /></clipPath><clipPath
       id="clipPath670"
       clipPathUnits="userSpaceOnUse"><path
         id="path668"
         d="m 1487.975,643.1536 h 232.6599 v 59.10573 H 1487.975 Z" /></clipPath><clipPath
       id="clipPath680"
       clipPathUnits="userSpaceOnUse"><path
         id="path678"
         d="M 0,0 H 1920 V 1080 H 0 Z" /></clipPath><clipPath
       id="clipPath692"
       clipPathUnits="userSpaceOnUse"><path
         id="path690"
         d="m 1489.025,214.7985 h 230.3461 v 59.10572 H 1489.025 Z" /></clipPath><clipPath
       id="clipPath702"
       clipPathUnits="userSpaceOnUse"><path
         id="path700"
         d="m 1489.025,214.7985 h 230.3461 v 59.10572 H 1489.025 Z" /></clipPath><clipPath
       id="clipPath712"
       clipPathUnits="userSpaceOnUse"><path
         id="path710"
         d="M 0,0 H 1920 V 1080 H 0 Z" /></clipPath><clipPath
       id="clipPath724"
       clipPathUnits="userSpaceOnUse"><path
         id="path722"
         d="m 1716.267,279.9265 15.853,-0.0393 -0.162,-65.3292 -15.853,0.0393 z" /></clipPath><clipPath
       id="clipPath730"
       clipPathUnits="userSpaceOnUse"><path
         id="path728"
         d="M 0,0 H 1920 V 1080 H 0 Z" /></clipPath><clipPath
       id="clipPath740"
       clipPathUnits="userSpaceOnUse"><path
         id="path738"
         d="m 1716.267,279.9265 15.853,-0.0393 -0.162,-65.3292 -15.853,0.0393 z" /></clipPath><clipPath
       id="clipPath746"
       clipPathUnits="userSpaceOnUse"><path
         id="path744"
         d="M 0,0 H 1920 V 1080 H 0 Z" /></clipPath><clipPath
       id="clipPath756"
       clipPathUnits="userSpaceOnUse"><path
         id="path754"
         d="m 1491.858,278.2595 -14.71,-0.1927 0.832,-63.5404 14.711,0.1927 z" /></clipPath><clipPath
       id="clipPath762"
       clipPathUnits="userSpaceOnUse"><path
         id="path760"
         d="M 0,0 H 1920 V 1080 H 0 Z" /></clipPath><clipPath
       id="clipPath772"
       clipPathUnits="userSpaceOnUse"><path
         id="path770"
         d="m 1491.858,278.2595 -14.71,-0.1927 0.832,-63.5404 14.711,0.1927 z" /></clipPath><clipPath
       id="clipPath778"
       clipPathUnits="userSpaceOnUse"><path
         id="path776"
         d="M 0,0 H 1920 V 1080 H 0 Z" /></clipPath><clipPath
       id="clipPath788"
       clipPathUnits="userSpaceOnUse"><path
         id="path786"
         d="m 1476.362,249.3587 h 255.6724 v 59.10572 H 1476.362 Z" /></clipPath><clipPath
       id="clipPath798"
       clipPathUnits="userSpaceOnUse"><path
         id="path796"
         d="m 1476.362,249.3587 h 255.6724 v 59.10572 H 1476.362 Z" /></clipPath><clipPath
       id="clipPath808"
       clipPathUnits="userSpaceOnUse"><path
         id="path806"
         d="m 1476.362,249.3587 h 255.6724 v 59.10572 H 1476.362 Z" /></clipPath><clipPath
       id="clipPath818"
       clipPathUnits="userSpaceOnUse"><path
         id="path816"
         d="m 1487.869,188.5343 h 232.6599 v 59.10573 H 1487.869 Z" /></clipPath><clipPath
       id="clipPath828"
       clipPathUnits="userSpaceOnUse"><path
         id="path826"
         d="m 1487.869,188.5343 h 232.6599 v 59.10573 H 1487.869 Z" /></clipPath><clipPath
       id="clipPath838"
       clipPathUnits="userSpaceOnUse"><path
         id="path836"
         d="m 1487.869,188.5343 h 232.6599 v 59.10573 H 1487.869 Z" /></clipPath><clipPath
       id="clipPath848"
       clipPathUnits="userSpaceOnUse"><path
         id="path846"
         d="M 0,0 H 1920 V 1080 H 0 Z" /></clipPath></defs><g
     transform="matrix(1.3333333,0,0,-1.3333333,0,1216)"
     id="g10"><g
       transform="translate(-76.8,-93.6)"
       id="g12"><g
         id="g14"><g
           clip-path="url(#clipPath20)"
           id="g16"><g
             id="g22" /><g
             id="g24"><g
               clip-path="url(#clipPath30)"
               id="g26"><path
                 id="path32"
                 style="fill:#ffffff;fill-opacity:1;fill-rule:nonzero;stroke:none"
                 d="M 0,0 H 1920 V 1080 H 0 Z" /></g></g><g
             id="g34"><g
               clip-path="url(#clipPath40)"
               id="g36"><path
                 id="path42"
                 style="fill:#ffffff;fill-opacity:1;fill-rule:nonzero;stroke:none"
                 d="m 825.4208,394.1937 h 228.3461 V 522.664 H 825.4208 Z" /></g></g><g
             id="g44"><g
               clip-path="url(#clipPath50)"
               id="g46"><path
                 id="path52"
                 style="fill:#56c1ff;fill-opacity:0.5;fill-rule:nonzero;stroke:none"
                 d="m 825.4208,394.1937 h 228.3461 V 522.664 H 825.4208 Z" /></g></g><g
             id="g54"><g
               clip-path="url(#clipPath60)"
               id="g56"><g
                 clip-path="url(#clipPath66)"
                 id="g62"><path
                   id="path68"
                   style="fill:#ffffff;fill-opacity:1;fill-rule:nonzero;stroke:none"
                   d="m 1052.497,394.0345 0.345,128.8602 26.842,-0.0616 z" /></g></g></g><g
             id="g70"><g
               clip-path="url(#clipPath76)"
               id="g72"><g
                 clip-path="url(#clipPath82)"
                 id="g78"><path
                   id="path84"
                   style="fill:#56c1ff;fill-opacity:0.5;fill-rule:nonzero;stroke:none"
                   d="m 1052.497,394.0345 0.345,128.8602 26.842,-0.0616 z" /></g></g></g><g
             id="g86"><g
               clip-path="url(#clipPath92)"
               id="g88"><g
                 clip-path="url(#clipPath98)"
                 id="g94"><path
                   id="path100"
                   style="fill:#ffffff;fill-opacity:1;fill-rule:nonzero;stroke:none"
                   d="m 826.4057,393.9679 0.3449,128.8586 -26.8506,0.0616 z" /></g></g></g><g
             id="g102"><g
               clip-path="url(#clipPath108)"
               id="g104"><g
                 clip-path="url(#clipPath114)"
                 id="g110"><path
                   id="path116"
                   style="fill:#56c1ff;fill-opacity:0.5;fill-rule:nonzero;stroke:none"
                   d="m 826.4057,393.9679 0.3449,128.8586 -26.8506,0.0616 z" /></g></g></g><g
             id="g118"><g
               clip-path="url(#clipPath124)"
               id="g120"><path
                 id="path126"
                 style="fill:#ffffff;fill-opacity:1;fill-rule:nonzero;stroke:none"
                 d="m 1039.686,540.3044 c 55.279,-11.1506 55.279,-29.2293 0,-40.3799 -55.2793,-11.1506 -144.905,-11.1506 -200.1844,0 -55.2795,11.1506 -55.2795,29.2293 0,40.3799 55.2794,11.1505 144.9051,11.1505 200.1844,0 z" /></g></g><g
             id="g128"><g
               clip-path="url(#clipPath134)"
               id="g130"><path
                 id="path136"
                 style="fill:#56c1ff;fill-opacity:0.5;fill-rule:nonzero;stroke:none"
                 d="m 1039.686,540.3044 c 55.279,-11.1506 55.279,-29.2293 0,-40.3799 -55.2793,-11.1506 -144.905,-11.1506 -200.1844,0 -55.2795,11.1506 -55.2795,29.2293 0,40.3799 55.2794,11.1505 144.9051,11.1505 200.1844,0 z" /></g></g><g
             id="g138"><g
               clip-path="url(#clipPath144)"
               id="g140"><path
                 id="path146"
                 style="fill:#56c1ff;fill-opacity:0.5;fill-rule:nonzero;stroke:none"
                 d="m 1039.686,540.3044 c 55.279,-11.1506 55.279,-29.2293 0,-40.3799 -55.2793,-11.1506 -144.905,-11.1506 -200.1844,0 -55.2795,11.1506 -55.2795,29.2293 0,40.3799 55.2794,11.1505 144.9051,11.1505 200.1844,0 z" /></g></g><g
             id="g148"><g
               clip-path="url(#clipPath154)"
               id="g150"><path
                 id="path156"
                 style="fill:#ffffff;fill-opacity:1;fill-rule:nonzero;stroke:none"
                 d="m 1021.144,416.6722 c 45.04,-11.1506 45.04,-29.2292 0,-40.3798 -45.0387,-11.1506 -118.0616,-11.1506 -163.1007,0 -45.0392,11.1506 -45.0392,29.2292 0,40.3798 45.0391,11.1506 118.062,11.1506 163.1007,0 z" /></g></g><g
             id="g158"><g
               clip-path="url(#clipPath164)"
               id="g160"><path
                 id="path166"
                 style="fill:#56c1ff;fill-opacity:0.5;fill-rule:nonzero;stroke:none"
                 d="m 1021.144,416.6722 c 45.04,-11.1506 45.04,-29.2292 0,-40.3798 -45.0387,-11.1506 -118.0616,-11.1506 -163.1007,0 -45.0392,11.1506 -45.0392,29.2292 0,40.3798 45.0391,11.1506 118.062,11.1506 163.1007,0 z" /></g></g><g
             id="g168"><g
               clip-path="url(#clipPath174)"
               id="g170"><path
                 id="path176"
                 style="fill:#56c1ff;fill-opacity:0.5;fill-rule:nonzero;stroke:none"
                 d="m 1021.144,416.6722 c 45.04,-11.1506 45.04,-29.2292 0,-40.3798 -45.0387,-11.1506 -118.0616,-11.1506 -163.1007,0 -45.0392,11.1506 -45.0392,29.2292 0,40.3798 45.0391,11.1506 118.062,11.1506 163.1007,0 z" /></g></g><g
             id="g178"><g
               clip-path="url(#clipPath184)"
               id="g180"><g
                 transform="matrix(1,0,0,-1,824.2639,425.0352)"
                 id="g186"><path
                   id="path188"
                   style="fill:none;stroke:#929292;stroke-width:4;stroke-linecap:butt;stroke-linejoin:miter;stroke-miterlimit:4;stroke-dasharray:none;stroke-opacity:1"
                   d="m 196.8805,8.36294 c 45.0392,11.15059 45.0392,29.22926 0,40.37985 -45.0391,11.15058 -118.06199,11.15058 -163.10114,0 -45.03915,-11.15059 -45.03915,-29.22926 0,-40.37985 45.03915,-11.150587 118.06204,-11.150587 163.10114,0 z" /></g><g
                 transform="matrix(0.1938957,0.9810221,0.9810221,-0.1938957,1054.607,394.4429)"
                 id="g190"><path
                   id="path192"
                   style="fill:none;stroke:#929292;stroke-width:4;stroke-linecap:butt;stroke-linejoin:miter;stroke-miterlimit:4;stroke-dasharray:none;stroke-opacity:1"
                   d="M 0,0 H 256.2053" /></g><g
                 transform="matrix(-0.1934935,0.9811016,0.9811016,0.1934935,824.4432,394.9192)"
                 id="g194"><path
                   id="path196"
                   style="fill:none;stroke:#929292;stroke-width:4;stroke-linecap:butt;stroke-linejoin:miter;stroke-miterlimit:4;stroke-dasharray:none;stroke-opacity:1"
                   d="M 0,0 H 253.8395" /></g></g></g><g
             id="g198"><g
               clip-path="url(#clipPath204)"
               id="g200"><path
                 id="path206"
                 style="fill:#ffffff;fill-opacity:1;fill-rule:nonzero;stroke:none"
                 d="m 1152.971,362.0984 c 0.222,-0.3034 0.689,-1.761 0.432,-1.8486 -0.104,0.5652 -0.613,1.6842 -0.432,1.8486 0,0 0,0 0,0 z m -0.75,2.9503 c 0.335,-0.4693 0.572,-1.6597 0.52,-2.0744 -0.12,0.6351 -0.671,1.8208 -0.52,2.0744 0,0 0,0 0,0 z m 0.577,-4.6954 c 0.158,-0.8036 0.728,-2.2242 0.611,-2.6412 -0.148,0.8137 -0.723,2.226 -0.611,2.6412 0,0 0,0 0,0 z m -11.959,39.0391 c 0.28,-0.2022 1.052,-1.3532 0.821,-1.4944 -0.219,0.4564 -0.955,1.2949 -0.821,1.4944 0,0 0,0 0,0 z m 3.377,-7.0128 c 0.413,-0.3545 0.827,-1.4062 0.855,-1.7926 -0.231,0.5524 -0.96,1.5263 -0.855,1.7926 0,0 0,0 0,0 z m 2.215,-3.9984 c 0.457,-0.9737 0.955,-2.0139 0.629,-1.9309 0.048,0.4063 -0.855,1.69 -0.629,1.9309 0,0 0,0 0,0 z m -4.309,-30.0595 c -0.218,1.1352 -0.653,1.8687 -0.864,2.6053 -1.072,3.6926 1.088,-1.7478 0.864,-2.6053 0,0 0,0 0,0 z m 6.966,22.2677 c -0.309,0.7259 -0.513,1.319 -0.536,1.7223 0.282,-0.6707 0.78,-1.5708 0.536,-1.7223 0,0 0,0 0,0 z m 2.287,-6.4783 c 0.208,-0.1139 1.539,-4.0429 2.063,-6.3275 -0.649,1.875 -2.27,6.4414 -2.063,6.3275 0,0 0,0 0,0 z m -12.108,-7.1517 c -0.622,2.389 -2.044,5.9621 -2.603,7.5935 -0.553,1.6192 1.433,-2.6817 2.905,-6.9763 1.464,-4.3119 -0.262,-0.9304 0.236,-2.7394 0.48,-1.8001 -0.799,1.6157 -1.289,3.3792 -0.485,1.7506 0.495,-1.1138 0.751,-1.257 0,0 0,0 0,0 z m -0.865,-0.4199 c 0.307,-0.8335 0.505,-1.5812 0.532,-2.1103 -0.378,0.848 -0.738,1.647 -0.532,2.1103 0,0 0,0 0,0 z m -85,73.5353 c 0.579,2.6398 3.095,4.5953 5.81,5.8242 0.67,0.2678 1.343,0.5315 2.037,0.7985 4.754,0.4964 9.416,0.2123 13.885,-0.5878 0.882,-0.1701 1.76,-0.3482 2.659,-0.5408 2.713,-0.5315 5.366,-1.2597 7.971,-2.0982 0.862,-0.2823 1.719,-0.5733 2.595,-0.8828 3.182,-0.8032 5.909,-2.3344 8.777,-3.6354 1.431,-0.6563 2.909,-1.2579 4.528,-1.6987 0.816,-0.2089 3.853,-1.9653 4.795,-2.7945 -0.736,1.0969 4.017,-2.1086 3.794,-1.979 0.421,-0.5203 0.9,-0.9932 1.417,-1.4067 0.511,-0.4241 -0.23,-0.027 -0.96,0.3808 0.552,-0.5062 1.133,-0.9636 1.742,-1.4034 0.657,-0.4363 1.308,-0.8799 1.974,-1.345 2.269,-1.3726 4.39,-3.297 6.07,-5.0989 2.552,-2.1616 7.058,-6.5414 10.334,-10.4044 3.276,-3.863 5.457,-7.0481 4.387,-5.7354 -2.435,2.9496 -1.424,1.2381 -0.833,0.4083 0.355,-0.4808 0.82,-1.1346 1.334,-1.8734 0.067,0.0832 0.099,0.1918 0.059,0.3322 1.079,-1.3243 2.746,-3.1185 3.804,-5.2731 -0.286,0.3423 -0.6,0.8137 -0.833,0.9063 0.679,-0.9889 -0.096,-0.3624 0.26,-1.068 1.14,-1.8722 1.636,-2.7997 0.277,-0.6588 1.067,-2.1171 1.491,-3.6277 2.338,-5.8461 0.488,-0.7436 0.223,-0.3364 0.215,-0.0367 0.91,-1.2723 2.561,-4.4892 2.843,-4.7255 0.305,-0.2245 -4.735,8.4886 -3.653,7.068 0.438,-0.5777 1.153,-1.9023 1.527,-2.349 -0.597,1.1243 -1.407,2.4541 -1.728,3.2009 0.501,-0.7183 1.133,-1.7847 1.544,-2.3385 -0.428,0.7379 -0.695,1.2591 -0.736,1.5274 0.649,-1.0577 1.167,-1.8419 1.873,-3.1573 0.244,-0.6217 -0.473,0.3827 0.206,-0.8516 0,-0.2905 -0.495,0.7866 -0.567,0.6502 0.487,-1.03 1.568,-3.0302 1.771,-3.5634 0.174,-0.5325 -0.644,1.2277 -0.744,1.2227 1.996,-3.9405 4.061,-8.6603 4.622,-10.1644 0.579,-1.5125 -0.018,-0.1176 -0.349,0.4835 0.652,-1.7614 1.197,-3.0703 1.981,-5.1939 0.489,-1.3652 0.243,-0.8422 -0.015,-0.3548 0.115,-0.3681 0.212,-0.696 0.267,-0.9132 0.034,-0.1618 0.156,-0.56 0.206,-0.8428 -0.36,0.8181 -0.908,2.3805 -1.258,3.0163 0.321,-1.2957 1.604,-4.2058 1.788,-5.3793 -0.754,1.7015 -1.409,3.5604 -2.247,5.4172 1.352,-3.7332 3.286,-7.4831 3.808,-10.8043 -0.216,0.5554 -0.455,0.7499 -0.691,1.1829 0.524,-1.1517 1.266,-2.8945 1.269,-4.0815 0.142,-0.6157 0.381,-1.8473 0.668,-3.0745 -0.665,2.1065 -1.133,3.4839 -1.482,4.9564 -0.04,-0.0444 -0.049,-0.1906 -0.01,-0.45 -1.378,3.1209 -1.286,5.1426 -1.962,7.3992 -0.078,0.1652 -0.156,0.3301 -0.236,0.4997 -0.502,0.6234 0.489,-1.866 0.407,-2.1793 -1.235,3.2708 -2.442,6.7945 -3.332,8.2244 1.462,-3.7435 2.809,-7.1159 3.56,-10.1711 -0.526,0.6781 -1.375,3.6895 -2.046,5.0059 2.087,-6.352 2.173,-7.1312 2.293,-7.6792 -0.184,0.4956 -0.37,0.9887 -0.563,1.4941 -0.01,-0.1428 -0.014,-0.2858 -0.022,-0.433 0.903,-2.8621 1.905,-6.3285 1.768,-6.1757 -0.1,0.1155 -0.915,2.8058 -1.801,5.5654 -0.021,-0.3243 -0.043,-0.6486 -0.067,-0.983 0.972,-3.257 1.558,-7.163 2.597,-10.5508 -0.39,0.5002 -0.28,0.2211 -0.255,-0.5303 -0.415,1.0424 -0.804,2.5616 -1.231,3.6582 0.029,-0.4066 0.251,-1.0985 0.197,-1.3522 -0.223,0.5493 -0.423,1.4511 -0.674,1.6852 0.341,-1.6073 0.732,-3.3437 1.082,-5.077 -0.167,-0.41 -0.23,0.7312 -0.371,0.6007 0.307,-1.6407 0.944,-3.9229 0.965,-5.1865 -0.478,1.3604 -0.937,4.0881 -1.277,4.8862 0.056,-0.5569 0.111,-1.1156 0.164,-1.6931 0.235,-1.1183 0.306,-1.6652 -0.084,-0.4373 -0.218,0.6568 -0.228,0.6372 -0.214,0.464 0.015,-0.7986 0.633,-3.4681 0.263,-3.4669 -0.146,0.6797 -0.736,3.3422 -1.132,3.9497 -0.145,-0.5607 0.317,-1.8768 0.109,-2.068 -0.552,2.9656 -0.67,2.8089 -0.672,3.5697 0.115,-0.3047 0.253,-1.1458 0.396,-1.0795 -0.434,1.7872 -0.888,3.5479 -1.379,5.3328 -0.143,-0.2114 -0.383,-0.2138 -0.551,-0.0878 0.194,-0.7595 0.344,-1.5619 0.747,-2.9876 -0.46,0.2924 -0.748,1.6141 -0.96,2.8359 -0.051,-0.0242 -0.102,-0.0483 -0.154,-0.0731 0.538,-1.9273 1.181,-4.9644 1.464,-7.0613 -0.29,0.9188 -1.115,4.3349 -1.665,6.6172 -0.046,-0.0896 -0.092,-0.1792 -0.14,-0.2715 -0.69,2.8669 -1.962,6.0263 -2.814,9.0856 0.053,-1.5928 0.942,-3.1972 1.414,-5.1637 0.214,-0.9055 0.314,-1.7716 0.42,-2.6847 0.78,-2.4723 2.656,-10.1916 2.683,-11.1299 0.033,-1.0328 -1.766,6.8498 -1.878,6.8687 -0.111,0.0189 0.654,-3.6199 0.269,-1.907 -0.188,0.8966 -0.631,2.8329 -0.959,4.2184 -0.218,-0.007 -0.437,-0.014 -0.662,-0.0215 0.307,-1.1996 0.567,-2.6582 0.982,-2.6168 0.1,-0.6143 0.571,-1.8478 0.416,-2.0886 -0.075,0.202 -0.124,0.5191 -0.224,0.4949 0.058,-0.299 0.198,-0.7208 0.095,-0.792 -0.388,1.4771 -1.006,3.4688 -1.413,5.0413 -0.13,0.1077 -0.26,0.2151 -0.394,0.3253 -0.03,-0.0388 0.21,-1.2816 0.431,-2.355 0.222,-1.1346 -0.466,1.1691 -0.937,2.9847 -0.181,0.2585 -0.363,0.5158 -0.551,0.7793 0.187,-0.6184 0.386,-1.3431 0.59,-2.21 0.142,-1.0367 -0.078,-1.0629 0.053,-2.1082 -0.548,1.8489 -1.163,4.0585 -1.608,5.8188 -0.373,0.5799 -0.748,1.1536 -1.137,1.7378 0.348,-1.4516 0.569,-2.8367 0.656,-3.6735 0.206,-0.6375 0.415,-1.3093 0.342,-1.5868 -0.251,0.5849 0.137,-1.0118 -0.177,-0.8367 0.01,0.9282 -0.565,2.6125 -0.418,3.3174 -0.382,1.3369 -0.827,2.7742 -1.211,4.0369 -0.084,0.1506 -0.167,0.3008 -0.253,0.4552 0.315,-1.0728 0.58,-2.1102 0.809,-3.3004 -0.501,0.4214 -1.473,3.5728 -2.028,5.8538 -1.774,4.4257 -2.262,9.2337 -3.961,13.4 -0.077,0.1673 -0.222,0.3896 -0.39,0.6288 -0.226,0.2523 -0.452,0.5027 -0.686,0.7587 0.435,-0.9736 0.787,-1.8653 1.039,-2.6172 -1.549,2.7941 1.615,-4.3093 1.553,-4.8838 -2.368,4.7217 -6.235,13.2916 -9.398,17.8321 0.678,-1.1437 0.866,-1.5295 0.041,-0.3615 -0.224,0.3157 -0.45,0.6292 -0.683,0.9499 2.777,-4.8592 6.047,-9.999 7.49,-14.5973 -1.199,2.5802 -2.908,6.4262 -3.738,7.2774 0.364,-0.7149 0.943,-1.7375 0.902,-1.9423 -0.869,1.148 -2.809,5.3923 -3.726,6.4086 3.178,-5.7447 7.279,-14.2524 8.658,-19.435 -2.636,7.6345 -7.458,16.5696 -10.431,21.9829 0.616,-0.8756 0.697,-0.8431 0.516,-0.2868 -0.962,1.6636 -1.959,3.2829 -3.025,4.9035 -0.279,0.2807 -0.232,0.1549 0.231,-0.6626 0.378,-0.6745 0.652,-1.0342 0.675,-1.3203 -0.347,0.3963 -3.764,5.2998 -1.102,1.3667 2.655,-3.9235 6.764,-11.3526 4.18,-7.1344 -2.585,4.2181 -3.862,5.6059 -2.509,3.3384 1.359,-2.2776 5.224,-9.9776 3.819,-7.4382 -1.399,2.5286 -4.659,7.4834 -6.473,10.1863 -1.82,2.7124 2.1,-1.2105 -0.741,2.661 -2.841,3.8715 -0.714,0.4661 -1.26,1.1948 -0.869,1.1484 -2.532,3.1904 -4.184,5.0174 -1.191,1.2538 -2.715,2.8531 -3.599,3.531 -0.053,-0.1648 3.628,-3.8561 2.109,-2.4546 -3.462,3.7106 -7.764,7.293 -5.792,6.0396 -2.359,2.0234 -4.151,3.432 -5.679,4.6342 -2.649,1.4965 -5.583,3.4171 -5.963,3.5446 -0.45,0.1405 -7.464,4.8465 -10.809,5.2075 -0.211,0.121 -5.52,2.5323 -5.899,2.9849 -5.427,1.617 -4.699,1.1362 -10.329,2.6686 -4.706,1.2743 -6.265,1.6688 -7.101,1.8507 -5.223,1.1567 -5.285,0.729 -7.848,2.4239 -0.776,0.4989 -2.062,0.6556 -2.433,1.3824 -0.741,1.4536 -1.008,3.2406 -0.503,5.408 0,0 0,0 0,0 z m 96.043,-81.0526 c 0.395,-1.0354 0.835,-3.001 1.25,-4.1193 -0.068,1.3803 -0.568,2.9765 -1.132,4.5601 -0.039,-0.1455 -0.078,-0.2909 -0.118,-0.4408 0,0 0,0 0,0 z m -6.433,6.6799 c 0.208,-0.6642 0.69,-1.3935 0.867,-2.1664 0.213,-0.7161 0.495,-1.4448 0.687,-2.5859 -0.165,0.0569 -0.844,1.818 -1.25,3.2032 -0.073,-0.0235 -0.146,-0.047 -0.221,-0.0712 0.104,-0.7009 0.28,-1.5147 0.57,-2.4663 0.115,-0.3182 0.229,-0.6375 0.345,-0.9677 0.144,0.0127 0.09,0.5561 -0.01,0.7387 0.285,-0.1857 0.64,-1.002 1.021,-2.0967 0.08,-0.123 0.159,-0.2463 0.241,-0.3736 0.243,-0.099 0.102,0.7796 0.346,-0.1774 0.035,0.7295 -0.651,2.392 -0.913,3.4649 -0.107,-1.3224 -1.198,3.1855 -1.753,4.1797 0.022,-0.2245 0.044,-0.4494 0.066,-0.6813 z m 6.016,11.6202 c -0.243,0.5836 -0.489,1.1637 -0.746,1.7575 0.345,-0.8631 0.589,-1.5364 0.809,-2.1579 -0.02,0.1322 -0.041,0.2643 -0.063,0.4004 z m -25.236,42.2731 c 2.088,-2.8635 7.412,-7.932 7.457,-8.5261 0.514,-0.5517 1.023,-1.1101 1.542,-1.6928 -3.045,3.868 -6.572,7.7103 -8.999,10.2189 0,0 0,0 0,0 z m -3.383,-18.7989 c 0.182,-0.1796 0.147,-0.0734 -0.215,0.4215 -1.954,2.6091 -3.119,4.1348 -1.755,2.6084 1.164,-1.3034 3.651,-4.2404 3.01,-3.3042 -0.912,1.1965 -1.848,2.3643 -2.837,3.5364 -0.852,0.8166 -1.807,1.4822 -2.828,2.0918 1.696,-1.8076 3.263,-3.6191 4.625,-5.3539 0,0 0,0 0,0 z m -5.879,6.0586 c 0.632,-0.6136 1.393,-1.3415 2.14,-2.1051 -0.619,0.689 -1.248,1.3665 -1.905,2.0522 -0.077,0.0176 -0.155,0.0351 -0.235,0.0529 z m -1.018,0.5707 c 1.26,-1.2644 2.543,-2.5206 1.342,-1.1715 -0.273,0.301 -0.547,0.5998 -0.832,0.9054 -0.168,0.0886 -0.337,0.1764 -0.51,0.2661 z m -0.899,0.6499 c 0.078,0.0501 0.352,-0.101 0.788,-0.5062 -0.852,0.863 -2.589,2.5483 -2.643,2.3199 0.574,-0.5645 1.207,-1.1802 1.855,-1.8137 0,0 0,0 0,0 z m 9.737,13.3736 c 0.717,-0.5999 1.344,-1.124 0.302,-0.0656 -0.399,0.3999 -0.802,0.7965 -1.22,1.2014 0.306,-0.3729 0.609,-0.7476 0.918,-1.1358 z m 14.046,-47.6958 c -0.128,0.3763 -0.723,1.7526 -0.987,2.5774 0.613,0.3691 1.474,-2.977 0.987,-2.5774 0,0 0,0 0,0 z m 1.796,-5.4382 c -0.111,0.3787 -0.661,1.8173 -0.913,2.6817 0.639,0.3489 1.387,-3.1156 0.913,-2.6817 0,0 0,0 0,0 z m -50.693,55.0338 c 0,-0.002 0.01,-0.003 0.011,-0.005 0,0.002 -0.01,0.003 -0.011,0.005 0,0 0,0 0,0 z" /></g></g><g
             id="g208"><g
               clip-path="url(#clipPath214)"
               id="g210"><path
                 id="path216"
                 style="fill:#56c1ff;fill-opacity:0.5;fill-rule:nonzero;stroke:none"
                 d="m 1152.971,362.0984 c 0.222,-0.3034 0.689,-1.761 0.432,-1.8486 -0.104,0.5652 -0.613,1.6842 -0.432,1.8486 0,0 0,0 0,0 z m -0.75,2.9503 c 0.335,-0.4693 0.572,-1.6597 0.52,-2.0744 -0.12,0.6351 -0.671,1.8208 -0.52,2.0744 0,0 0,0 0,0 z m 0.577,-4.6954 c 0.158,-0.8036 0.728,-2.2242 0.611,-2.6412 -0.148,0.8137 -0.723,2.226 -0.611,2.6412 0,0 0,0 0,0 z m -11.959,39.0391 c 0.28,-0.2022 1.052,-1.3532 0.821,-1.4944 -0.219,0.4564 -0.955,1.2949 -0.821,1.4944 0,0 0,0 0,0 z m 3.377,-7.0128 c 0.413,-0.3545 0.827,-1.4062 0.855,-1.7926 -0.231,0.5524 -0.96,1.5263 -0.855,1.7926 0,0 0,0 0,0 z m 2.215,-3.9984 c 0.457,-0.9737 0.955,-2.0139 0.629,-1.9309 0.048,0.4063 -0.855,1.69 -0.629,1.9309 0,0 0,0 0,0 z m -4.309,-30.0595 c -0.218,1.1352 -0.653,1.8687 -0.864,2.6053 -1.072,3.6926 1.088,-1.7478 0.864,-2.6053 0,0 0,0 0,0 z m 6.966,22.2677 c -0.309,0.7259 -0.513,1.319 -0.536,1.7223 0.282,-0.6707 0.78,-1.5708 0.536,-1.7223 0,0 0,0 0,0 z m 2.287,-6.4783 c 0.208,-0.1139 1.539,-4.0429 2.063,-6.3275 -0.649,1.875 -2.27,6.4414 -2.063,6.3275 0,0 0,0 0,0 z m -12.108,-7.1517 c -0.622,2.389 -2.044,5.9621 -2.603,7.5935 -0.553,1.6192 1.433,-2.6817 2.905,-6.9763 1.464,-4.3119 -0.262,-0.9304 0.236,-2.7394 0.48,-1.8001 -0.799,1.6157 -1.289,3.3792 -0.485,1.7506 0.495,-1.1138 0.751,-1.257 0,0 0,0 0,0 z m -0.865,-0.4199 c 0.307,-0.8335 0.505,-1.5812 0.532,-2.1103 -0.378,0.848 -0.738,1.647 -0.532,2.1103 0,0 0,0 0,0 z m -85,73.5353 c 0.579,2.6398 3.095,4.5953 5.81,5.8242 0.67,0.2678 1.343,0.5315 2.037,0.7985 4.754,0.4964 9.416,0.2123 13.885,-0.5878 0.882,-0.1701 1.76,-0.3482 2.659,-0.5408 2.713,-0.5315 5.366,-1.2597 7.971,-2.0982 0.862,-0.2823 1.719,-0.5733 2.595,-0.8828 3.182,-0.8032 5.909,-2.3344 8.777,-3.6354 1.431,-0.6563 2.909,-1.2579 4.528,-1.6987 0.816,-0.2089 3.853,-1.9653 4.795,-2.7945 -0.736,1.0969 4.017,-2.1086 3.794,-1.979 0.421,-0.5203 0.9,-0.9932 1.417,-1.4067 0.511,-0.4241 -0.23,-0.027 -0.96,0.3808 0.552,-0.5062 1.133,-0.9636 1.742,-1.4034 0.657,-0.4363 1.308,-0.8799 1.974,-1.345 2.269,-1.3726 4.39,-3.297 6.07,-5.0989 2.552,-2.1616 7.058,-6.5414 10.334,-10.4044 3.276,-3.863 5.457,-7.0481 4.387,-5.7354 -2.435,2.9496 -1.424,1.2381 -0.833,0.4083 0.355,-0.4808 0.82,-1.1346 1.334,-1.8734 0.067,0.0832 0.099,0.1918 0.059,0.3322 1.079,-1.3243 2.746,-3.1185 3.804,-5.2731 -0.286,0.3423 -0.6,0.8137 -0.833,0.9063 0.679,-0.9889 -0.096,-0.3624 0.26,-1.068 1.14,-1.8722 1.636,-2.7997 0.277,-0.6588 1.067,-2.1171 1.491,-3.6277 2.338,-5.8461 0.488,-0.7436 0.223,-0.3364 0.215,-0.0367 0.91,-1.2723 2.561,-4.4892 2.843,-4.7255 0.305,-0.2245 -4.735,8.4886 -3.653,7.068 0.438,-0.5777 1.153,-1.9023 1.527,-2.349 -0.597,1.1243 -1.407,2.4541 -1.728,3.2009 0.501,-0.7183 1.133,-1.7847 1.544,-2.3385 -0.428,0.7379 -0.695,1.2591 -0.736,1.5274 0.649,-1.0577 1.167,-1.8419 1.873,-3.1573 0.244,-0.6217 -0.473,0.3827 0.206,-0.8516 0,-0.2905 -0.495,0.7866 -0.567,0.6502 0.487,-1.03 1.568,-3.0302 1.771,-3.5634 0.174,-0.5325 -0.644,1.2277 -0.744,1.2227 1.996,-3.9405 4.061,-8.6603 4.622,-10.1644 0.579,-1.5125 -0.018,-0.1176 -0.349,0.4835 0.652,-1.7614 1.197,-3.0703 1.981,-5.1939 0.489,-1.3652 0.243,-0.8422 -0.015,-0.3548 0.115,-0.3681 0.212,-0.696 0.267,-0.9132 0.034,-0.1618 0.156,-0.56 0.206,-0.8428 -0.36,0.8181 -0.908,2.3805 -1.258,3.0163 0.321,-1.2957 1.604,-4.2058 1.788,-5.3793 -0.754,1.7015 -1.409,3.5604 -2.247,5.4172 1.352,-3.7332 3.286,-7.4831 3.808,-10.8043 -0.216,0.5554 -0.455,0.7499 -0.691,1.1829 0.524,-1.1517 1.266,-2.8945 1.269,-4.0815 0.142,-0.6157 0.381,-1.8473 0.668,-3.0745 -0.665,2.1065 -1.133,3.4839 -1.482,4.9564 -0.04,-0.0444 -0.049,-0.1906 -0.01,-0.45 -1.378,3.1209 -1.286,5.1426 -1.962,7.3992 -0.078,0.1652 -0.156,0.3301 -0.236,0.4997 -0.502,0.6234 0.489,-1.866 0.407,-2.1793 -1.235,3.2708 -2.442,6.7945 -3.332,8.2244 1.462,-3.7435 2.809,-7.1159 3.56,-10.1711 -0.526,0.6781 -1.375,3.6895 -2.046,5.0059 2.087,-6.352 2.173,-7.1312 2.293,-7.6792 -0.184,0.4956 -0.37,0.9887 -0.563,1.4941 -0.01,-0.1428 -0.014,-0.2858 -0.022,-0.433 0.903,-2.8621 1.905,-6.3285 1.768,-6.1757 -0.1,0.1155 -0.915,2.8058 -1.801,5.5654 -0.021,-0.3243 -0.043,-0.6486 -0.067,-0.983 0.972,-3.257 1.558,-7.163 2.597,-10.5508 -0.39,0.5002 -0.28,0.2211 -0.255,-0.5303 -0.415,1.0424 -0.804,2.5616 -1.231,3.6582 0.029,-0.4066 0.251,-1.0985 0.197,-1.3522 -0.223,0.5493 -0.423,1.4511 -0.674,1.6852 0.341,-1.6073 0.732,-3.3437 1.082,-5.077 -0.167,-0.41 -0.23,0.7312 -0.371,0.6007 0.307,-1.6407 0.944,-3.9229 0.965,-5.1865 -0.478,1.3604 -0.937,4.0881 -1.277,4.8862 0.056,-0.5569 0.111,-1.1156 0.164,-1.6931 0.235,-1.1183 0.306,-1.6652 -0.084,-0.4373 -0.218,0.6568 -0.228,0.6372 -0.214,0.464 0.015,-0.7986 0.633,-3.4681 0.263,-3.4669 -0.146,0.6797 -0.736,3.3422 -1.132,3.9497 -0.145,-0.5607 0.317,-1.8768 0.109,-2.068 -0.552,2.9656 -0.67,2.8089 -0.672,3.5697 0.115,-0.3047 0.253,-1.1458 0.396,-1.0795 -0.434,1.7872 -0.888,3.5479 -1.379,5.3328 -0.143,-0.2114 -0.383,-0.2138 -0.551,-0.0878 0.194,-0.7595 0.344,-1.5619 0.747,-2.9876 -0.46,0.2924 -0.748,1.6141 -0.96,2.8359 -0.051,-0.0242 -0.102,-0.0483 -0.154,-0.0731 0.538,-1.9273 1.181,-4.9644 1.464,-7.0613 -0.29,0.9188 -1.115,4.3349 -1.665,6.6172 -0.046,-0.0896 -0.092,-0.1792 -0.14,-0.2715 -0.69,2.8669 -1.962,6.0263 -2.814,9.0856 0.053,-1.5928 0.942,-3.1972 1.414,-5.1637 0.214,-0.9055 0.314,-1.7716 0.42,-2.6847 0.78,-2.4723 2.656,-10.1916 2.683,-11.1299 0.033,-1.0328 -1.766,6.8498 -1.878,6.8687 -0.111,0.0189 0.654,-3.6199 0.269,-1.907 -0.188,0.8966 -0.631,2.8329 -0.959,4.2184 -0.218,-0.007 -0.437,-0.014 -0.662,-0.0215 0.307,-1.1996 0.567,-2.6582 0.982,-2.6168 0.1,-0.6143 0.571,-1.8478 0.416,-2.0886 -0.075,0.202 -0.124,0.5191 -0.224,0.4949 0.058,-0.299 0.198,-0.7208 0.095,-0.792 -0.388,1.4771 -1.006,3.4688 -1.413,5.0413 -0.13,0.1077 -0.26,0.2151 -0.394,0.3253 -0.03,-0.0388 0.21,-1.2816 0.431,-2.355 0.222,-1.1346 -0.466,1.1691 -0.937,2.9847 -0.181,0.2585 -0.363,0.5158 -0.551,0.7793 0.187,-0.6184 0.386,-1.3431 0.59,-2.21 0.142,-1.0367 -0.078,-1.0629 0.053,-2.1082 -0.548,1.8489 -1.163,4.0585 -1.608,5.8188 -0.373,0.5799 -0.748,1.1536 -1.137,1.7378 0.348,-1.4516 0.569,-2.8367 0.656,-3.6735 0.206,-0.6375 0.415,-1.3093 0.342,-1.5868 -0.251,0.5849 0.137,-1.0118 -0.177,-0.8367 0.01,0.9282 -0.565,2.6125 -0.418,3.3174 -0.382,1.3369 -0.827,2.7742 -1.211,4.0369 -0.084,0.1506 -0.167,0.3008 -0.253,0.4552 0.315,-1.0728 0.58,-2.1102 0.809,-3.3004 -0.501,0.4214 -1.473,3.5728 -2.028,5.8538 -1.774,4.4257 -2.262,9.2337 -3.961,13.4 -0.077,0.1673 -0.222,0.3896 -0.39,0.6288 -0.226,0.2523 -0.452,0.5027 -0.686,0.7587 0.435,-0.9736 0.787,-1.8653 1.039,-2.6172 -1.549,2.7941 1.615,-4.3093 1.553,-4.8838 -2.368,4.7217 -6.235,13.2916 -9.398,17.8321 0.678,-1.1437 0.866,-1.5295 0.041,-0.3615 -0.224,0.3157 -0.45,0.6292 -0.683,0.9499 2.777,-4.8592 6.047,-9.999 7.49,-14.5973 -1.199,2.5802 -2.908,6.4262 -3.738,7.2774 0.364,-0.7149 0.943,-1.7375 0.902,-1.9423 -0.869,1.148 -2.809,5.3923 -3.726,6.4086 3.178,-5.7447 7.279,-14.2524 8.658,-19.435 -2.636,7.6345 -7.458,16.5696 -10.431,21.9829 0.616,-0.8756 0.697,-0.8431 0.516,-0.2868 -0.962,1.6636 -1.959,3.2829 -3.025,4.9035 -0.279,0.2807 -0.232,0.1549 0.231,-0.6626 0.378,-0.6745 0.652,-1.0342 0.675,-1.3203 -0.347,0.3963 -3.764,5.2998 -1.102,1.3667 2.655,-3.9235 6.764,-11.3526 4.18,-7.1344 -2.585,4.2181 -3.862,5.6059 -2.509,3.3384 1.359,-2.2776 5.224,-9.9776 3.819,-7.4382 -1.399,2.5286 -4.659,7.4834 -6.473,10.1863 -1.82,2.7124 2.1,-1.2105 -0.741,2.661 -2.841,3.8715 -0.714,0.4661 -1.26,1.1948 -0.869,1.1484 -2.532,3.1904 -4.184,5.0174 -1.191,1.2538 -2.715,2.8531 -3.599,3.531 -0.053,-0.1648 3.628,-3.8561 2.109,-2.4546 -3.462,3.7106 -7.764,7.293 -5.792,6.0396 -2.359,2.0234 -4.151,3.432 -5.679,4.6342 -2.649,1.4965 -5.583,3.4171 -5.963,3.5446 -0.45,0.1405 -7.464,4.8465 -10.809,5.2075 -0.211,0.121 -5.52,2.5323 -5.899,2.9849 -5.427,1.617 -4.699,1.1362 -10.329,2.6686 -4.706,1.2743 -6.265,1.6688 -7.101,1.8507 -5.223,1.1567 -5.285,0.729 -7.848,2.4239 -0.776,0.4989 -2.062,0.6556 -2.433,1.3824 -0.741,1.4536 -1.008,3.2406 -0.503,5.408 0,0 0,0 0,0 z m 96.043,-81.0526 c 0.395,-1.0354 0.835,-3.001 1.25,-4.1193 -0.068,1.3803 -0.568,2.9765 -1.132,4.5601 -0.039,-0.1455 -0.078,-0.2909 -0.118,-0.4408 0,0 0,0 0,0 z m -6.433,6.6799 c 0.208,-0.6642 0.69,-1.3935 0.867,-2.1664 0.213,-0.7161 0.495,-1.4448 0.687,-2.5859 -0.165,0.0569 -0.844,1.818 -1.25,3.2032 -0.073,-0.0235 -0.146,-0.047 -0.221,-0.0712 0.104,-0.7009 0.28,-1.5147 0.57,-2.4663 0.115,-0.3182 0.229,-0.6375 0.345,-0.9677 0.144,0.0127 0.09,0.5561 -0.01,0.7387 0.285,-0.1857 0.64,-1.002 1.021,-2.0967 0.08,-0.123 0.159,-0.2463 0.241,-0.3736 0.243,-0.099 0.102,0.7796 0.346,-0.1774 0.035,0.7295 -0.651,2.392 -0.913,3.4649 -0.107,-1.3224 -1.198,3.1855 -1.753,4.1797 0.022,-0.2245 0.044,-0.4494 0.066,-0.6813 z m 6.016,11.6202 c -0.243,0.5836 -0.489,1.1637 -0.746,1.7575 0.345,-0.8631 0.589,-1.5364 0.809,-2.1579 -0.02,0.1322 -0.041,0.2643 -0.063,0.4004 z m -25.236,42.2731 c 2.088,-2.8635 7.412,-7.932 7.457,-8.5261 0.514,-0.5517 1.023,-1.1101 1.542,-1.6928 -3.045,3.868 -6.572,7.7103 -8.999,10.2189 0,0 0,0 0,0 z m -3.383,-18.7989 c 0.182,-0.1796 0.147,-0.0734 -0.215,0.4215 -1.954,2.6091 -3.119,4.1348 -1.755,2.6084 1.164,-1.3034 3.651,-4.2404 3.01,-3.3042 -0.912,1.1965 -1.848,2.3643 -2.837,3.5364 -0.852,0.8166 -1.807,1.4822 -2.828,2.0918 1.696,-1.8076 3.263,-3.6191 4.625,-5.3539 0,0 0,0 0,0 z m -5.879,6.0586 c 0.632,-0.6136 1.393,-1.3415 2.14,-2.1051 -0.619,0.689 -1.248,1.3665 -1.905,2.0522 -0.077,0.0176 -0.155,0.0351 -0.235,0.0529 z m -1.018,0.5707 c 1.26,-1.2644 2.543,-2.5206 1.342,-1.1715 -0.273,0.301 -0.547,0.5998 -0.832,0.9054 -0.168,0.0886 -0.337,0.1764 -0.51,0.2661 z m -0.899,0.6499 c 0.078,0.0501 0.352,-0.101 0.788,-0.5062 -0.852,0.863 -2.589,2.5483 -2.643,2.3199 0.574,-0.5645 1.207,-1.1802 1.855,-1.8137 0,0 0,0 0,0 z m 9.737,13.3736 c 0.717,-0.5999 1.344,-1.124 0.302,-0.0656 -0.399,0.3999 -0.802,0.7965 -1.22,1.2014 0.306,-0.3729 0.609,-0.7476 0.918,-1.1358 z m 14.046,-47.6958 c -0.128,0.3763 -0.723,1.7526 -0.987,2.5774 0.613,0.3691 1.474,-2.977 0.987,-2.5774 0,0 0,0 0,0 z m 1.796,-5.4382 c -0.111,0.3787 -0.661,1.8173 -0.913,2.6817 0.639,0.3489 1.387,-3.1156 0.913,-2.6817 0,0 0,0 0,0 z m -50.693,55.0338 c 0,-0.002 0.01,-0.003 0.011,-0.005 0,0.002 -0.01,0.003 -0.011,0.005 0,0 0,0 0,0 z" /></g></g><g
             id="g218"><g
               clip-path="url(#clipPath224)"
               id="g220"><g
                 transform="translate(1144.908,421.4181)"
                 id="g226"><text
                   id="text230"
                   style="font-variant:normal;font-weight:normal;font-size:34px;font-family:HelveticaNeue;-inkscape-font-specification:HelveticaNeue;writing-mode:lr-tb;fill:#000000;fill-opacity:1;fill-rule:nonzero;stroke:none"
                   transform="scale(1,-1)"><tspan
                     id="tspan228"
                     y="0"
                     x="0 19.516001 38.419998">out</tspan></text>
</g><g
                 transform="translate(963.5906,715.1281)"
                 id="g232"><text
                   id="text236"
                   style="font-variant:normal;font-weight:normal;font-size:34px;font-family:HelveticaNeue;-inkscape-font-specification:HelveticaNeue;writing-mode:lr-tb;fill:#000000;fill-opacity:1;fill-rule:nonzero;stroke:none"
                   transform="scale(1,-1)"><tspan
                     id="tspan234"
                     y="0"
                     x="0 7.5479999">in</tspan></text>
</g></g></g><g
             id="g238"><g
               clip-path="url(#clipPath244)"
               id="g240"><g
                 id="g246" /><g
                 id="g266"><g
                   style="opacity:0.5"
                   id="g264"
                   clip-path="url(#clipPath250)"><g
                     id="g256" /><g
                     id="g262"><g
                       id="g260"
                       clip-path="url(#clipPath254)"><path
                         id="path258"
                         style="fill:#56c1ff;fill-opacity:1;fill-rule:nonzero;stroke:none"
                         d="m 935.31,774.4524 c -0.1291,0.5864 -0.1807,3.1106 0.0903,3.1361 -0.0516,-0.9434 0.129,-2.9577 -0.0903,-3.1361 0,0 0,0 0,0 z m -0.1291,-5.074 c -0.1806,0.9179 -0.0645,2.9322 0.1033,3.5696 -0.0645,-1.0708 0.1161,-3.2381 -0.1033,-3.5696 0,0 0,0 0,0 z m 0.7742,7.7766 c 0.0646,1.3514 -0.1161,3.8501 0.1033,4.462 -0.0646,-1.3513 0.1161,-3.85 -0.1033,-4.462 0,0 0,0 0,0 z m -4.529,-71.3407 c -0.129,0.5865 -0.1806,3.1107 0.0903,3.1107 -0.0516,-0.9179 0.1291,-2.9322 -0.0903,-3.1107 0,0 0,0 0,0 z m 0.6323,14.0999 c -0.1936,0.9179 -0.0646,2.9321 0.0903,3.5696 -0.0516,-1.0709 0.129,-3.2382 -0.0903,-3.5696 0,0 0,0 0,0 z m -0.1162,8.1845 c 0.0258,1.9123 0.0258,3.9521 0.2839,3.5696 -0.2193,-0.6119 0.0258,-3.3656 -0.2839,-3.5696 0,0 0,0 0,0 z m 14.8387,47.4245 c -0.1032,-2.0397 0.1033,-3.5186 0.0904,-4.8954 -0.0516,-6.9097 -0.542,3.5441 -0.0904,4.8954 0,0 0,0 0,0 z m -13.9871,-32.9931 c 0,-1.3769 -0.0516,-2.4733 -0.1935,-3.1362 0.0129,1.2749 -0.0903,3.0597 0.1935,3.1362 0,0 0,0 0,0 z m 0.271,11.8561 c -0.1548,0.3059 -0.0774,7.3431 0.129,11.2442 0.0388,-3.3146 0.0259,-11.5502 -0.129,-11.2442 0,0 0,0 0,0 z m 13.8194,4.6404 c -0.2065,-4.5639 -0.1807,-11.8561 -0.2968,-15.1707 -0.1161,-3.2891 -0.2452,5.8643 -0.1936,14.2783 0.0646,8.4396 0.5678,1.4789 0.671,4.921 0.1161,3.4166 0.2452,-3.2891 0.1032,-6.7057 -0.1419,-3.3912 -0.0903,2.2692 -0.2838,2.6771 0,0 0,0 0,0 z m 0.9548,0.204 c -0.0129,1.6573 0.0387,3.0852 0.1807,4.0286 0.0903,-1.7083 0.1677,-3.3402 -0.1807,-4.0286 0,0 0,0 0,0 z M 941.0261,514.714 c -2.6839,0.5609 -4.8774,4.5385 -6.4516,8.8985 -0.3534,1.0854 -0.7068,2.1708 -1.071,3.2891 -1.1742,7.9806 -1.7806,16.0121 -2.0774,24.0437 -0.0468,1.5903 -0.0937,3.1805 -0.1419,4.8189 -0.1936,4.921 -0.271,9.8674 -0.3226,14.8393 -0.0128,1.6492 -0.0256,3.2983 -0.0387,4.9974 -0.3484,5.9663 0.0129,11.6777 -0.0258,17.542 -0.0129,2.9322 -0.1291,5.9153 -0.4903,8.975 -0.1936,1.5298 -0.1291,8.0825 0.1032,10.4028 -0.5678,-2.2438 -0.3355,8.516 -0.3226,8.0315 0.2064,1.1984 0.3355,2.4477 0.3871,3.6971 0.0645,1.2493 0.1548,-0.3315 0.2193,-1.9123 0.1162,1.4023 0.1678,2.8047 0.1807,4.2325 -0.017,1.4977 -0.0341,2.9954 -0.0516,4.5385 -0.2323,5.0229 -0.0516,10.4283 0.2193,15.0942 -0.0516,12.7486 0.1936,47.7305 0.3097,41.4072 0.1549,-7.1391 0.3742,-3.4676 0.4129,-1.5553 0.0129,1.1219 0.0387,2.6262 0.0645,4.309 -0.1032,-0.051 -0.1935,-0.1785 -0.2451,-0.4334 -0.0774,3.1871 -0.4,7.6746 -0.1033,12.0601 0.0517,-0.8159 0.0517,-1.8613 0.1936,-2.2438 -0.0129,2.2183 0.2839,0.459 0.3742,1.9123 0.0774,4.054 0.1548,5.9918 0.129,1.3004 0.2581,4.3599 0.6839,7.1391 1.0581,11.4481 -0.0516,1.6318 -0.0258,0.7394 -0.1678,0.255 -0.1548,2.8557 -0.0903,9.4084 -0.2322,10.0203 -0.1678,0.612 -0.0645,-17.7459 -0.2581,-14.4823 -0.0774,1.3259 -0.0258,4.0795 -0.129,5.1249 -0.0387,-2.3202 -0.0258,-5.1759 -0.1419,-6.6547 -0.0517,1.6063 -0.0517,3.8755 -0.1291,5.1249 0,-1.5553 -0.0387,-2.6262 -0.1419,-3.0851 -0.0129,2.2692 -0.0645,3.9775 -0.0387,6.6802 0.0903,1.1983 0.2322,-1.0199 0.2322,1.5298 0.142,0.4589 0.0516,-1.6828 0.1807,-1.5298 0.0774,2.0652 0.0645,6.1703 0.129,7.1901 0.0903,0.9944 0,-2.4987 0.0903,-2.5752 0.0904,7.9806 0.142,17.0576 0.2194,19.8622 0.0645,2.8302 0.0645,0.1785 0.129,-1.0198 0.1032,3.2891 0.1032,5.7623 0.142,9.6633 0.0387,2.4987 0.0774,1.5044 0.1419,0.561 0.0258,0.6629 0.0516,1.2493 0.0774,1.6318 0.0258,0.2804 0.0516,0.9944 0.1032,1.4788 0.0516,-1.5298 0,-4.3855 0.0904,-5.6348 0.1806,2.2947 0,7.7511 0.2193,9.7398 0.1419,-3.1616 0.1032,-6.5527 0.1936,-10.0968 0.129,6.9097 -0.4646,13.9979 0.0387,19.5562 0.0387,-0.9944 0.2064,-1.4278 0.2967,-2.2437 -0.1419,2.1162 -0.3354,5.2524 0,7.1392 0.0388,1.0453 0.1549,3.1106 0.2065,5.1759 0.0774,-3.6206 0.129,-6.0428 0.0258,-8.567 0.0516,0.051 0.1032,0.2804 0.1419,0.7139 0.4,-5.6604 -0.3483,-8.8985 -0.4774,-12.927 0.0171,-0.3113 0.0341,-0.6227 0.0516,-0.9434 0.2581,-1.3004 0.1678,3.2891 0.3484,3.748 0.0903,-5.9663 -0.0903,-12.468 0.1807,-15.4002 0.0903,7.0882 -0.0258,13.335 0.2322,18.6639 0.2839,-1.3769 0.0903,-6.7312 0.2581,-9.281 0.271,11.6012 0.2839,12.7741 0.3355,13.7175 0.0255,-0.8919 0.0511,-1.7838 0.0774,-2.7027 0.0511,0.2271 0.1022,0.4543 0.1548,0.6884 0.0258,5.0994 0.0129,11.0912 0.1033,10.7852 0.0645,-0.2294 0.1161,-4.8954 0.1161,-9.8163 0.1192,0.5132 0.2384,1.0265 0.3613,1.5553 0.0516,5.7623 0.5419,12.2896 0.3484,18.0519 0.258,-0.9434 0.2193,-0.4589 0.3742,0.7394 0.1548,-1.8103 0.1548,-4.3855 0.2838,-6.3233 0.0774,0.663 0.0387,1.8613 0.1549,2.2438 0.0774,-0.9689 0.0387,-2.4987 0.2193,-2.9832 0.0903,2.7282 0.142,5.6604 0.2065,8.5415 0.258,0.5865 0.0516,-1.2493 0.2193,-1.0963 0.0903,2.7282 -0.0258,6.5527 0.2194,8.5415 0.1806,-2.2948 0.0129,-6.7822 0.1548,-8.1846 0.0767,0.9087 0.1533,1.8175 0.2323,2.7537 0.0258,1.8613 0.0774,2.7537 0.1806,0.6629 0.0645,-1.1218 0.0774,-1.0963 0.1032,-0.8159 0.1678,1.2749 0.142,5.7114 0.5033,5.5839 0,-1.1219 -0.0129,-5.5584 0.2322,-6.6802 0.271,0.8414 0.1162,3.1106 0.3613,3.3401 -0.1161,-4.921 0.0129,-4.7425 -0.1677,-5.9663 -0.0387,0.5354 0.0258,1.9377 -0.1291,1.8867 0.004,-3.029 0.009,-6.0581 0.013,-9.1789 0.1935,0.2805 0.4258,0.1785 0.5548,-0.102 0.0129,1.3259 0.0774,2.7027 0.0387,5.1759 0.3742,-0.6629 0.3226,-2.9321 0.2065,-5.0229 0.0553,0.0168 0.1107,0.0337 0.1677,0.051 -0.0129,3.3911 0.1032,8.567 0.2968,12.0346 0.0774,-1.5808 0.0774,-7.4196 0.0129,-11.3972 0.0681,0.1262 0.1362,0.2524 0.2064,0.3825 -0.0774,-4.9974 0.2452,-10.8618 0.0903,-16.4711 0.4517,2.7027 0.0904,5.8643 0.1936,9.3574 0.0516,1.6063 0.1935,3.0851 0.3355,4.6405 -0.0903,4.4364 -0.142,17.6184 0.0258,19.1227 0.1806,1.6573 0.1806,-11.7031 0.2839,-11.7796 0.1032,-0.0765 0.2193,6.1448 0.1935,3.2126 -0.0258,-1.5298 -0.0645,-4.8699 -0.1032,-7.2921 0.2129,-0.0842 0.4258,-0.1683 0.6451,-0.255 0.0129,2.1163 0.1162,4.615 -0.2967,4.717 0.0516,1.0453 -0.1162,3.2381 0.0903,3.5696 0.0258,-0.357 0,-0.8924 0.1032,-0.8924 0.0129,0.5099 -0.0258,1.2493 0.0903,1.3258 0.0387,-2.5497 0.1549,-6.0683 0.142,-8.8475 0.0979,-0.2356 0.1958,-0.4712 0.2967,-0.7139 0.0388,0.051 0.1291,2.2183 0.1807,4.0795 0.0645,1.9633 0.1677,-2.1162 0.1419,-5.3543 0.1065,-0.5133 0.2129,-1.0266 0.3226,-1.5554 -0.0129,1.1219 -0.0129,2.4223 0.0129,3.9521 0.129,1.7848 0.3484,1.7338 0.4774,3.5186 0.0774,-3.2891 0.0904,-7.2667 0.0258,-10.4538 0.1959,-1.1611 0.3918,-2.3223 0.5936,-3.5186 0.0903,2.6517 0.258,5.0994 0.4,6.5527 -0.0258,1.1729 -0.0516,2.3968 0.0903,2.8302 0.0903,-1.0964 0.129,1.7593 0.3871,1.3259 -0.2452,-1.5554 -0.1419,-4.666 -0.4774,-5.7879 0,-2.4477 0.0129,-5.1249 0,-7.4961 0.034,-0.3029 0.0681,-0.6058 0.1032,-0.9179 0.0258,2.0143 0.0774,3.9265 0.1936,6.0683 0.3612,-0.9689 0.3742,-6.8842 0.1677,-11.1677 0.2581,-8.72 -1.0581,-17.542 -1.2516,-26.262 0,-0.3569 0.0387,-0.8669 0.0903,-1.4278 0.0979,-0.631 0.1959,-1.2621 0.2968,-1.9123 0.0258,2.0908 0.0774,3.9521 0.1548,5.4819 0.271,-6.1703 0.2065,8.822 0.4774,9.7909 0.4388,-9.9949 0.1162,-28.7097 0.4129,-40.2599 0.0259,2.7792 0.0646,3.6716 0.1549,0.6884 0.0255,-0.8077 0.0511,-1.6154 0.0774,-2.4477 0.2452,11.7542 -0.3226,23.9673 0.2194,33.3247 0.0516,-5.5584 -0.142,-13.9979 0.1935,-16.3181 0.0129,1.6318 -0.0387,4.003 0.0903,4.3345 0.2581,-2.8557 -0.0774,-12.4171 0.1936,-15.2218 0.1935,13.7174 -0.0387,32.3303 0.4774,42.4271 -0.1936,-15.2727 0.0903,-35.8743 -0.2968,-48.9543 -0.0516,2.2692 -0.1419,2.2947 -0.2838,1.0964 -0.0682,-4.0556 -0.1363,-8.1112 -0.2065,-12.2896 0.0645,-0.8414 0.1032,-0.561 0.1935,1.4533 0.0775,1.6573 0.0517,2.6262 0.1936,3.1616 0.0645,-1.1218 0.0387,-14.0488 0.129,-3.7735 0.0904,10.2498 0.2581,27.9957 0.3484,17.6184 0.0903,-10.3773 0.2968,-14.4823 0.3871,-8.8219 0.0903,5.6858 0.4387,23.6357 0.4774,17.6184 0.0387,-5.9918 0.2581,-18.6383 0.1936,-25.7775 -0.0645,-7.1647 -0.9291,4.8444 -0.9549,-5.6858 -0.0258,-10.5303 0.2968,-1.7593 0.2839,-3.7736 -0.0129,-3.1871 0,-9.0514 0.0129,-14.6098 0.0516,-3.901 0.0387,-8.924 0.1807,-11.4482 0.1548,0.1785 0.0387,12.0601 0.1935,7.3687 0,-11.5502 0.0645,-24.4517 -0.2968,-19.1483 0.0387,-7.1392 0.0129,-12.3916 -0.0516,-16.8535 0.3613,-6.9352 0.2968,-14.9923 0.3871,-15.8847 0.1161,-1.0454 -0.6193,-19.9642 0.4,-27.0779 -0.0258,-0.5354 -0.2839,-13.2839 -0.5806,-14.3803 0.3226,-12.1366 0.5677,-10.4283 0.4516,-22.3864 -0.0903,-9.9948 -0.271,-13.0545 -0.2968,-14.7373 -0.1806,-10.5303 0.1678,-10.4538 -1.2,-15.6042 -0.4,-1.5553 -0.4129,-3.952 -1.0968,-4.7679 -1.3677,-1.6318 -3.1225,-2.3967 -5.329,-1.8868 0,0 0,0 0,0 z m -1.4839,263.0785 c -0.1032,1.8612 -0.0258,5.2269 -0.1548,7.1901 -0.271,-2.2437 -0.1936,-5.0229 -0.0774,-7.8531 0.0766,0.2188 0.1533,0.4376 0.2322,0.663 0,0 0,0 0,0 z m 4.2065,-14.3804 c 0.0129,1.2494 -0.2194,2.7537 -0.1549,4.1561 0.013,1.3258 -0.0387,2.7026 0.1033,4.7169 0.1419,-0.1785 0.2838,-3.4931 0.2451,-6.0683 0.0767,0 0.1533,0 0.2323,0 0.1161,1.2494 0.1935,2.7282 0.1935,4.4875 -0.017,0.5974 -0.034,1.1948 -0.0516,1.8103 -0.1419,0.051 -0.2451,-0.8924 -0.2064,-1.2494 -0.2194,0.459 -0.3226,2.0143 -0.3871,4.0286 -0.0426,0.244 -0.0852,0.488 -0.1291,0.7394 -0.2064,0.2804 -0.3096,-1.2494 -0.2838,0.4589 -0.2323,-1.1983 -0.0387,-4.309 -0.1032,-6.2468 0.4903,2.1673 0.1806,-6.0173 0.387,-8.0315 0.0511,0.3954 0.1022,0.7909 0.1549,1.1983 z m -9.6516,-15.6551 c 0.009,-1.1023 0.017,-2.2045 0.0258,-3.3402 0.0129,1.6319 0.0387,2.8812 0.0645,4.0286 -0.0298,-0.2272 -0.0596,-0.4544 -0.0903,-0.6884 z m -2.1936,-91.7384 c 0.6323,6.6802 0.0516,20.7036 0.4,21.6215 -0.0383,1.4304 -0.0766,2.8608 -0.1161,4.3345 -0.0516,-9.3064 -0.1419,-19.2758 -0.2839,-25.956 0,0 0,0 0,0 z m 15.3033,23.5848 c -0.0259,0.5609 -0.0646,0.3314 -0.1033,-1.0199 -0.1677,-7.1902 -0.3742,-11.4482 -0.3742,-6.9097 0,3.8755 -0.0645,12.3151 -0.1548,9.8418 -0.0426,-3.2898 -0.0852,-6.5797 -0.129,-9.9693 0.0903,-2.6007 0.3354,-5.1249 0.6451,-7.7001 0.0387,5.5583 0.0645,10.8872 0.1162,15.7572 0,0 0,0 0,0 z m 0.2838,-18.8678 c -0.0129,1.9887 -0.0516,4.3599 -0.0774,6.7567 -0.017,-2.0783 -0.0341,-4.1566 -0.0516,-6.2978 0.0426,-0.1515 0.0852,-0.3029 0.129,-0.4589 z m 0.3097,-2.5497 c 0.0258,4.054 -0.0258,8.108 -0.1161,4.0285 -0.0171,-0.9171 -0.0341,-1.8343 -0.0516,-2.7792 0.0553,-0.4123 0.1107,-0.8246 0.1677,-1.2493 z m 0.1548,-2.4988 c -0.0903,0.051 -0.1677,0.7395 -0.1806,2.0908 -0.0258,-2.7537 -0.1032,-8.261 0.1032,-8.0061 0.0387,1.8358 0.0645,3.8501 0.0774,5.9153 0,0 0,0 0,0 z m -16.4258,-4.105 c -0.0387,1.7848 -0.0774,3.3401 -0.1548,0.51 -0.0256,-1.077 -0.0511,-2.154 -0.0774,-3.2637 0.0766,0.9088 0.1533,1.8175 0.2322,2.7537 z m 15.6129,93.4977 c -0.0258,-0.7649 -0.0129,-3.6716 -0.1032,-5.3544 -0.7097,-0.1785 -0.1935,6.4252 0.1032,5.3544 0,0 0,0 0,0 z m 0.2968,10.8872 c -0.0258,-0.7394 -0.0129,-3.6461 -0.0903,-5.3544 -0.7226,-0.1785 -0.2065,6.4253 0.0903,5.3544 0,0 0,0 0,0 z m 1.6516,-167.5156 c 0,0.008 0,0.0169 0,0.0255 0,-0.008 0,-0.0168 0,-0.0255 0,0 0,0 0,0 z" /></g></g></g></g><g
                 transform="matrix(0,1,1,0,939.5939,655.4127)"
                 id="g268"><path
                   id="path270"
                   style="fill:none;stroke:#ffffff;stroke-width:17;stroke-linecap:butt;stroke-linejoin:miter;stroke-miterlimit:4;stroke-dasharray:none;stroke-opacity:1"
                   d="M 0,0 H 41.59912" /></g><g
                 transform="matrix(1,0,0,-1,775.1537,673.4963)"
                 id="g272"><path
                   id="path274"
                   style="fill:none;stroke:#929292;stroke-width:4;stroke-linecap:butt;stroke-linejoin:miter;stroke-miterlimit:4;stroke-dasharray:none;stroke-opacity:1"
                   d="m 280.7169,8.36294 c 64.2178,11.15059 64.2178,29.22926 0,40.37985 -64.2179,11.15058 -168.3356,11.15058 -232.5535,0 -64.21787,-11.15059 -64.21787,-29.22926 0,-40.37985 64.2179,-11.150587 168.3356,-11.150587 232.5535,0 z" /></g></g></g><g
             id="g276"><g
               clip-path="url(#clipPath282)"
               id="g278"><g
                 id="g284" /><g
                 id="g306"><g
                   style="opacity:0.5"
                   id="g304"
                   clip-path="url(#clipPath288)"><g
                     id="g294" /><g
                     id="g302"><g
                       id="g300"
                       clip-path="url(#clipPath292)"><g
                         id="g298"
                         transform="matrix(0,1,1,0,939.5939,655.4127)"><path
                           id="path296"
                           style="fill:none;stroke:#56c1ff;stroke-width:17;stroke-linecap:butt;stroke-linejoin:miter;stroke-miterlimit:4;stroke-dasharray:none;stroke-opacity:1"
                           d="M 0,0 H 41.59912" /></g></g></g></g></g><g
                 transform="translate(1543.029,599.0638)"
                 id="g308"><text
                   id="text312"
                   style="font-variant:normal;font-weight:normal;font-size:34px;font-family:HelveticaNeue;-inkscape-font-specification:HelveticaNeue;writing-mode:lr-tb;fill:#000000;fill-opacity:1;fill-rule:nonzero;stroke:none"
                   transform="scale(1,-1)"><tspan
                     id="tspan310"
                     y="0"
                     x="0 18.903999 37.161999 47.872002 57.324001 76.839996 95.098 102.646">net gain</tspan></text>
</g></g></g><g
             id="g314"><g
               clip-path="url(#clipPath320)"
               id="g316"><path
                 id="path322"
                 style="fill:#ffffff;fill-opacity:1;fill-rule:nonzero;stroke:none"
                 d="M 165.702,398.1876 H 394.0481 V 526.6579 H 165.702 Z" /></g></g><g
             id="g324"><g
               clip-path="url(#clipPath330)"
               id="g326"><path
                 id="path332"
                 style="fill:#56c1ff;fill-opacity:0.5;fill-rule:nonzero;stroke:none"
                 d="M 165.702,398.1876 H 394.0481 V 526.6579 H 165.702 Z" /></g></g><g
             id="g334"><g
               clip-path="url(#clipPath340)"
               id="g336"><g
                 transform="matrix(1,0,0,-1,115.4349,677.4902)"
                 id="g342"><path
                   id="path344"
                   style="fill:none;stroke:#929292;stroke-width:4;stroke-linecap:butt;stroke-linejoin:miter;stroke-miterlimit:4;stroke-dasharray:none;stroke-opacity:1"
                   d="m 280.7169,8.36294 c 64.2178,11.15059 64.2178,29.22926 0,40.37985 -64.2179,11.15058 -168.3356,11.15058 -232.5535,0 -64.21787,-11.15059 -64.21787,-29.22926 0,-40.37985 64.2179,-11.150587 168.3356,-11.150587 232.5535,0 z" /></g></g></g><g
             id="g346"><g
               clip-path="url(#clipPath352)"
               id="g348"><g
                 clip-path="url(#clipPath358)"
                 id="g354"><path
                   id="path360"
                   style="fill:#ffffff;fill-opacity:1;fill-rule:nonzero;stroke:none"
                   d="m 392.7786,398.0283 0.3447,128.8602 26.8423,-0.0615 z" /></g></g></g><g
             id="g362"><g
               clip-path="url(#clipPath368)"
               id="g364"><g
                 clip-path="url(#clipPath374)"
                 id="g370"><path
                   id="path376"
                   style="fill:#56c1ff;fill-opacity:0.5;fill-rule:nonzero;stroke:none"
                   d="m 392.7786,398.0283 0.3447,128.8602 26.8423,-0.0615 z" /></g></g></g><g
             id="g378"><g
               clip-path="url(#clipPath384)"
               id="g380"><g
                 clip-path="url(#clipPath390)"
                 id="g386"><path
                   id="path392"
                   style="fill:#ffffff;fill-opacity:1;fill-rule:nonzero;stroke:none"
                   d="m 166.6869,397.9618 0.3449,128.8586 -26.8506,0.0616 z" /></g></g></g><g
             id="g394"><g
               clip-path="url(#clipPath400)"
               id="g396"><g
                 clip-path="url(#clipPath406)"
                 id="g402"><path
                   id="path408"
                   style="fill:#56c1ff;fill-opacity:0.5;fill-rule:nonzero;stroke:none"
                   d="m 166.6869,397.9618 0.3449,128.8586 -26.8506,0.0616 z" /></g></g></g><g
             id="g410"><g
               clip-path="url(#clipPath416)"
               id="g412"><path
                 id="path418"
                 style="fill:#ffffff;fill-opacity:1;fill-rule:nonzero;stroke:none"
                 d="m 379.9673,544.2983 c 55.2794,-11.1506 55.2794,-29.2293 0,-40.3799 -55.2794,-11.1506 -144.905,-11.1506 -200.1845,0 -55.2794,11.1506 -55.2794,29.2293 0,40.3799 55.2795,11.1505 144.9051,11.1505 200.1845,0 z" /></g></g><g
             id="g420"><g
               clip-path="url(#clipPath426)"
               id="g422"><path
                 id="path428"
                 style="fill:#56c1ff;fill-opacity:0.5;fill-rule:nonzero;stroke:none"
                 d="m 379.9673,544.2983 c 55.2794,-11.1506 55.2794,-29.2293 0,-40.3799 -55.2794,-11.1506 -144.905,-11.1506 -200.1845,0 -55.2794,11.1506 -55.2794,29.2293 0,40.3799 55.2795,11.1505 144.9051,11.1505 200.1845,0 z" /></g></g><g
             id="g430"><g
               clip-path="url(#clipPath436)"
               id="g432"><path
                 id="path438"
                 style="fill:#56c1ff;fill-opacity:0.5;fill-rule:nonzero;stroke:none"
                 d="m 379.9673,544.2983 c 55.2794,-11.1506 55.2794,-29.2293 0,-40.3799 -55.2794,-11.1506 -144.905,-11.1506 -200.1845,0 -55.2794,11.1506 -55.2794,29.2293 0,40.3799 55.2795,11.1505 144.9051,11.1505 200.1845,0 z" /></g></g><g
             id="g440"><g
               clip-path="url(#clipPath446)"
               id="g442"><path
                 id="path448"
                 style="fill:#ffffff;fill-opacity:1;fill-rule:nonzero;stroke:none"
                 d="m 361.4257,420.6661 c 45.0391,-11.1506 45.0391,-29.2292 0,-40.3798 -45.0392,-11.1506 -118.0621,-11.1506 -163.1012,0 -45.0392,11.1506 -45.0392,29.2292 0,40.3798 45.0391,11.1506 118.062,11.1506 163.1012,0 z" /></g></g><g
             id="g450"><g
               clip-path="url(#clipPath456)"
               id="g452"><path
                 id="path458"
                 style="fill:#56c1ff;fill-opacity:0.5;fill-rule:nonzero;stroke:none"
                 d="m 361.4257,420.6661 c 45.0391,-11.1506 45.0391,-29.2292 0,-40.3798 -45.0392,-11.1506 -118.0621,-11.1506 -163.1012,0 -45.0392,11.1506 -45.0392,29.2292 0,40.3798 45.0391,11.1506 118.062,11.1506 163.1012,0 z" /></g></g><g
             id="g460"><g
               clip-path="url(#clipPath466)"
               id="g462"><path
                 id="path468"
                 style="fill:#56c1ff;fill-opacity:0.5;fill-rule:nonzero;stroke:none"
                 d="m 361.4257,420.6661 c 45.0391,-11.1506 45.0391,-29.2292 0,-40.3798 -45.0392,-11.1506 -118.0621,-11.1506 -163.1012,0 -45.0392,11.1506 -45.0392,29.2292 0,40.3798 45.0391,11.1506 118.062,11.1506 163.1012,0 z" /></g></g><g
             id="g470"><g
               clip-path="url(#clipPath476)"
               id="g472"><g
                 transform="matrix(1,0,0,-1,164.5451,429.0291)"
                 id="g478"><path
                   id="path480"
                   style="fill:none;stroke:#929292;stroke-width:4;stroke-linecap:butt;stroke-linejoin:miter;stroke-miterlimit:4;stroke-dasharray:none;stroke-opacity:1"
                   d="m 196.8805,8.36294 c 45.0392,11.15059 45.0392,29.22926 0,40.37985 -45.0391,11.15058 -118.06199,11.15058 -163.10114,0 -45.03915,-11.15059 -45.03915,-29.22926 0,-40.37985 45.03915,-11.150587 118.06204,-11.150587 163.10114,0 z" /></g></g></g><g
             id="g482"><g
               clip-path="url(#clipPath488)"
               id="g484"><g
                 clip-path="url(#clipPath494)"
                 id="g490"><g
                   transform="matrix(0.1938957,0.9810221,0.9810221,-0.1938957,394.8879,398.4368)"
                   id="g496"><path
                     id="path498"
                     style="fill:none;stroke:#929292;stroke-width:4;stroke-linecap:butt;stroke-linejoin:miter;stroke-miterlimit:4;stroke-dasharray:none;stroke-opacity:1"
                     d="M 0,0 H 256.2053" /></g></g></g></g><g
             id="g500"><g
               clip-path="url(#clipPath506)"
               id="g502"><g
                 clip-path="url(#clipPath512)"
                 id="g508"><g
                   transform="matrix(-0.1934935,0.9811016,0.9811016,0.1934935,164.7245,398.9131)"
                   id="g514"><path
                     id="path516"
                     style="fill:none;stroke:#929292;stroke-width:4;stroke-linecap:butt;stroke-linejoin:miter;stroke-miterlimit:4;stroke-dasharray:none;stroke-opacity:1"
                     d="M 0,0 H 253.8395" /></g></g></g></g><g
             id="g518"><g
               clip-path="url(#clipPath524)"
               id="g520"><path
                 id="path526"
                 style="fill:#ffffff;fill-opacity:1;fill-rule:nonzero;stroke:none"
                 d="m 1490.131,670.4178 h 228.3461 v 184.649 H 1490.131 Z" /></g></g><g
             id="g528"><g
               clip-path="url(#clipPath534)"
               id="g530"><path
                 id="path536"
                 style="fill:#56c1ff;fill-opacity:0.5;fill-rule:nonzero;stroke:none"
                 d="m 1490.131,670.4178 h 228.3461 v 184.649 H 1490.131 Z" /></g></g><g
             id="g538"><g
               clip-path="url(#clipPath544)"
               id="g540"><g
                 transform="matrix(1,0,0,-1,1439.864,949.7204)"
                 id="g546"><path
                   id="path548"
                   style="fill:none;stroke:#929292;stroke-width:4;stroke-linecap:butt;stroke-linejoin:miter;stroke-miterlimit:4;stroke-dasharray:none;stroke-opacity:1"
                   d="m 280.7169,8.36294 c 64.2178,11.15059 64.2178,29.22926 0,40.37985 -64.2179,11.15058 -168.3356,11.15058 -232.5535,0 -64.21787,-11.15059 -64.21787,-29.22926 0,-40.37985 64.2179,-11.150587 168.3356,-11.150587 232.5535,0 z" /></g></g></g><g
             id="g550"><g
               clip-path="url(#clipPath556)"
               id="g552"><g
                 clip-path="url(#clipPath562)"
                 id="g558"><path
                   id="path564"
                   style="fill:#ffffff;fill-opacity:1;fill-rule:nonzero;stroke:none"
                   d="m 1717.208,670.2898 0.489,184.9936 38.087,-0.0884 z" /></g></g></g><g
             id="g566"><g
               clip-path="url(#clipPath572)"
               id="g568"><g
                 clip-path="url(#clipPath578)"
                 id="g574"><path
                   id="path580"
                   style="fill:#56c1ff;fill-opacity:0.5;fill-rule:nonzero;stroke:none"
                   d="m 1717.208,670.2898 0.489,184.9936 38.087,-0.0884 z" /></g></g></g><g
             id="g582"><g
               clip-path="url(#clipPath588)"
               id="g584"><g
                 clip-path="url(#clipPath594)"
                 id="g590"><path
                   id="path596"
                   style="fill:#ffffff;fill-opacity:1;fill-rule:nonzero;stroke:none"
                   d="m 1490.924,670.1921 0.49,185.012 -38.118,0.0884 z" /></g></g></g><g
             id="g598"><g
               clip-path="url(#clipPath604)"
               id="g600"><g
                 clip-path="url(#clipPath610)"
                 id="g606"><path
                   id="path612"
                   style="fill:#56c1ff;fill-opacity:0.5;fill-rule:nonzero;stroke:none"
                   d="m 1490.924,670.1921 0.49,185.012 -38.118,0.0884 z" /></g></g></g><g
             id="g614"><g
               clip-path="url(#clipPath620)"
               id="g616"><path
                 id="path622"
                 style="fill:#ffffff;fill-opacity:1;fill-rule:nonzero;stroke:none"
                 d="m 1710.761,877.9413 c 58.794,-11.1506 58.794,-29.2292 0,-40.3798 -58.794,-11.1506 -154.119,-11.1506 -212.913,0 -58.794,11.1506 -58.794,29.2292 0,40.3798 58.794,11.1506 154.119,11.1506 212.913,0 z" /></g></g><g
             id="g624"><g
               clip-path="url(#clipPath630)"
               id="g626"><path
                 id="path632"
                 style="fill:#56c1ff;fill-opacity:0.5;fill-rule:nonzero;stroke:none"
                 d="m 1710.761,877.9413 c 58.794,-11.1506 58.794,-29.2292 0,-40.3798 -58.794,-11.1506 -154.119,-11.1506 -212.913,0 -58.794,11.1506 -58.794,29.2292 0,40.3798 58.794,11.1506 154.119,11.1506 212.913,0 z" /></g></g><g
             id="g634"><g
               clip-path="url(#clipPath640)"
               id="g636"><path
                 id="path642"
                 style="fill:#56c1ff;fill-opacity:0.5;fill-rule:nonzero;stroke:none"
                 d="m 1710.761,877.9413 c 58.794,-11.1506 58.794,-29.2292 0,-40.3798 -58.794,-11.1506 -154.119,-11.1506 -212.913,0 -58.794,11.1506 -58.794,29.2292 0,40.3798 58.794,11.1506 154.119,11.1506 212.913,0 z" /></g></g><g
             id="g644"><g
               clip-path="url(#clipPath650)"
               id="g646"><path
                 id="path652"
                 style="fill:#ffffff;fill-opacity:1;fill-rule:nonzero;stroke:none"
                 d="m 1685.855,692.8964 c 45.039,-11.1506 45.039,-29.2293 0,-40.3799 -45.039,-11.1505 -118.062,-11.1505 -163.101,0 -45.039,11.1506 -45.039,29.2293 0,40.3799 45.039,11.1506 118.062,11.1506 163.101,0 z" /></g></g><g
             id="g654"><g
               clip-path="url(#clipPath660)"
               id="g656"><path
                 id="path662"
                 style="fill:#56c1ff;fill-opacity:0.5;fill-rule:nonzero;stroke:none"
                 d="m 1685.855,692.8964 c 45.039,-11.1506 45.039,-29.2293 0,-40.3799 -45.039,-11.1505 -118.062,-11.1505 -163.101,0 -45.039,11.1506 -45.039,29.2293 0,40.3799 45.039,11.1506 118.062,11.1506 163.101,0 z" /></g></g><g
             id="g664"><g
               clip-path="url(#clipPath670)"
               id="g666"><path
                 id="path672"
                 style="fill:#56c1ff;fill-opacity:0.5;fill-rule:nonzero;stroke:none"
                 d="m 1685.855,692.8964 c 45.039,-11.1506 45.039,-29.2293 0,-40.3799 -45.039,-11.1505 -118.062,-11.1505 -163.101,0 -45.039,11.1506 -45.039,29.2293 0,40.3799 45.039,11.1506 118.062,11.1506 163.101,0 z" /></g></g><g
             id="g674"><g
               clip-path="url(#clipPath680)"
               id="g676"><g
                 transform="matrix(1,0,0,-1,1488.975,701.2593)"
                 id="g682"><path
                   id="path684"
                   style="fill:none;stroke:#929292;stroke-width:4;stroke-linecap:butt;stroke-linejoin:miter;stroke-miterlimit:4;stroke-dasharray:none;stroke-opacity:1"
                   d="m 196.8805,8.36294 c 45.0392,11.15059 45.0392,29.22926 0,40.37985 -45.0391,11.15058 -118.06199,11.15058 -163.10114,0 -45.03915,-11.15059 -45.03915,-29.22926 0,-40.37985 45.03915,-11.150587 118.06204,-11.150587 163.10114,0 z" /></g></g></g><g
             id="g686"><g
               clip-path="url(#clipPath692)"
               id="g688"><path
                 id="path694"
                 style="fill:#ffffff;fill-opacity:1;fill-rule:nonzero;stroke:none"
                 d="m 1490.025,215.7985 h 228.3461 v 57.10572 H 1490.025 Z" /></g></g><g
             id="g696"><g
               clip-path="url(#clipPath702)"
               id="g698"><path
                 id="path704"
                 style="fill:#56c1ff;fill-opacity:0.5;fill-rule:nonzero;stroke:none"
                 d="m 1490.025,215.7985 h 228.3461 v 57.10572 H 1490.025 Z" /></g></g><g
             id="g706"><g
               clip-path="url(#clipPath712)"
               id="g708"><g
                 transform="matrix(1,0,0,-1,1439.758,495.1011)"
                 id="g714"><path
                   id="path716"
                   style="fill:none;stroke:#929292;stroke-width:4;stroke-linecap:butt;stroke-linejoin:miter;stroke-miterlimit:4;stroke-dasharray:none;stroke-opacity:1"
                   d="m 280.7169,8.36294 c 64.2178,11.15059 64.2178,29.22926 0,40.37985 -64.2179,11.15058 -168.3356,11.15058 -232.5535,0 -64.21787,-11.15059 -64.21787,-29.22926 0,-40.37985 64.2179,-11.150587 168.3356,-11.150587 232.5535,0 z" /></g></g></g><g
             id="g718"><g
               clip-path="url(#clipPath724)"
               id="g720"><g
                 clip-path="url(#clipPath730)"
                 id="g726"><path
                   id="path732"
                   style="fill:#ffffff;fill-opacity:1;fill-rule:nonzero;stroke:none"
                   d="m 1717.107,215.5948 0.178,63.3251 13.832,-0.0302 z" /></g></g></g><g
             id="g734"><g
               clip-path="url(#clipPath740)"
               id="g736"><g
                 clip-path="url(#clipPath746)"
                 id="g742"><path
                   id="path748"
                   style="fill:#56c1ff;fill-opacity:0.5;fill-rule:nonzero;stroke:none"
                   d="m 1717.107,215.5948 0.178,63.3251 13.832,-0.0302 z" /></g></g></g><g
             id="g750"><g
               clip-path="url(#clipPath756)"
               id="g752"><g
                 clip-path="url(#clipPath762)"
                 id="g758"><path
                   id="path764"
                   style="fill:#ffffff;fill-opacity:1;fill-rule:nonzero;stroke:none"
                   d="m 1491.667,215.7058 -0.795,61.5407 -12.711,-0.1686 z" /></g></g></g><g
             id="g766"><g
               clip-path="url(#clipPath772)"
               id="g768"><g
                 clip-path="url(#clipPath778)"
                 id="g774"><path
                   id="path780"
                   style="fill:#56c1ff;fill-opacity:0.5;fill-rule:nonzero;stroke:none"
                   d="m 1491.667,215.7058 -0.795,61.5407 -12.711,-0.1686 z" /></g></g></g><g
             id="g782"><g
               clip-path="url(#clipPath788)"
               id="g784"><path
                 id="path790"
                 style="fill:#ffffff;fill-opacity:1;fill-rule:nonzero;stroke:none"
                 d="m 1693.885,299.1015 c 49.533,-11.1506 49.533,-29.2293 0,-40.3799 -49.532,-11.1506 -129.841,-11.1506 -179.373,0 -49.533,11.1506 -49.533,29.2293 0,40.3799 49.532,11.1506 129.841,11.1506 179.373,0 z" /></g></g><g
             id="g792"><g
               clip-path="url(#clipPath798)"
               id="g794"><path
                 id="path800"
                 style="fill:#56c1ff;fill-opacity:0.5;fill-rule:nonzero;stroke:none"
                 d="m 1693.885,299.1015 c 49.533,-11.1506 49.533,-29.2293 0,-40.3799 -49.532,-11.1506 -129.841,-11.1506 -179.373,0 -49.533,11.1506 -49.533,29.2293 0,40.3799 49.532,11.1506 129.841,11.1506 179.373,0 z" /></g></g><g
             id="g802"><g
               clip-path="url(#clipPath808)"
               id="g804"><path
                 id="path810"
                 style="fill:#56c1ff;fill-opacity:0.5;fill-rule:nonzero;stroke:none"
                 d="m 1693.885,299.1015 c 49.533,-11.1506 49.533,-29.2293 0,-40.3799 -49.532,-11.1506 -129.841,-11.1506 -179.373,0 -49.533,11.1506 -49.533,29.2293 0,40.3799 49.532,11.1506 129.841,11.1506 179.373,0 z" /></g></g><g
             id="g812"><g
               clip-path="url(#clipPath818)"
               id="g814"><path
                 id="path820"
                 style="fill:#ffffff;fill-opacity:1;fill-rule:nonzero;stroke:none"
                 d="m 1685.749,238.2771 c 45.039,-11.1506 45.039,-29.2293 0,-40.3799 -45.039,-11.1506 -118.062,-11.1506 -163.101,0 -45.039,11.1506 -45.039,29.2293 0,40.3799 45.039,11.1506 118.062,11.1506 163.101,0 z" /></g></g><g
             id="g822"><g
               clip-path="url(#clipPath828)"
               id="g824"><path
                 id="path830"
                 style="fill:#56c1ff;fill-opacity:0.5;fill-rule:nonzero;stroke:none"
                 d="m 1685.749,238.2771 c 45.039,-11.1506 45.039,-29.2293 0,-40.3799 -45.039,-11.1506 -118.062,-11.1506 -163.101,0 -45.039,11.1506 -45.039,29.2293 0,40.3799 45.039,11.1506 118.062,11.1506 163.101,0 z" /></g></g><g
             id="g832"><g
               clip-path="url(#clipPath838)"
               id="g834"><path
                 id="path840"
                 style="fill:#56c1ff;fill-opacity:0.5;fill-rule:nonzero;stroke:none"
                 d="m 1685.749,238.2771 c 45.039,-11.1506 45.039,-29.2293 0,-40.3799 -45.039,-11.1506 -118.062,-11.1506 -163.101,0 -45.039,11.1506 -45.039,29.2293 0,40.3799 45.039,11.1506 118.062,11.1506 163.101,0 z" /></g></g><g
             id="g842"><g
               clip-path="url(#clipPath848)"
               id="g844"><g
                 transform="matrix(1,0,0,-1,1488.869,246.64)"
                 id="g850"><path
                   id="path852"
                   style="fill:none;stroke:#929292;stroke-width:4;stroke-linecap:butt;stroke-linejoin:miter;stroke-miterlimit:4;stroke-dasharray:none;stroke-opacity:1"
                   d="m 196.8805,8.36294 c 45.0392,11.15059 45.0392,29.22926 0,40.37985 -45.0391,11.15058 -118.06199,11.15058 -163.10114,0 -45.03915,-11.15059 -45.03915,-29.22926 0,-40.37985 45.03915,-11.150587 118.06204,-11.150587 163.10114,0 z" /></g><g
                 transform="matrix(0.1938957,0.9810221,0.9810221,-0.1938957,1719.211,216.0478)"
                 id="g854"><path
                   id="path856"
                   style="fill:none;stroke:#929292;stroke-width:4;stroke-linecap:butt;stroke-linejoin:miter;stroke-miterlimit:4;stroke-dasharray:none;stroke-opacity:1"
                   d="M 0,0 H 256.2053" /></g><g
                 transform="matrix(-0.1934935,0.9811016,0.9811016,0.1934935,1489.048,216.524)"
                 id="g858"><path
                   id="path860"
                   style="fill:none;stroke:#929292;stroke-width:4;stroke-linecap:butt;stroke-linejoin:miter;stroke-miterlimit:4;stroke-dasharray:none;stroke-opacity:1"
                   d="M 0,0 H 253.8395" /></g><g
                 transform="matrix(0.1938957,0.9810221,0.9810221,-0.1938957,1719.317,670.6671)"
                 id="g862"><path
                   id="path864"
                   style="fill:none;stroke:#929292;stroke-width:4;stroke-linecap:butt;stroke-linejoin:miter;stroke-miterlimit:4;stroke-dasharray:none;stroke-opacity:1"
                   d="M 0,0 H 256.2053" /></g><g
                 transform="matrix(-0.1934935,0.9811016,0.9811016,0.1934935,1489.154,671.1433)"
                 id="g866"><path
                   id="path868"
                   style="fill:none;stroke:#929292;stroke-width:4;stroke-linecap:butt;stroke-linejoin:miter;stroke-miterlimit:4;stroke-dasharray:none;stroke-opacity:1"
                   d="M 0,0 H 253.8395" /></g><g
                 transform="translate(1544.61,136.4602)"
                 id="g870"><text
                   id="text874"
                   style="font-variant:normal;font-weight:normal;font-size:34px;font-family:HelveticaNeue;-inkscape-font-specification:HelveticaNeue;writing-mode:lr-tb;fill:#000000;fill-opacity:1;fill-rule:nonzero;stroke:none"
                   transform="scale(1,-1)"><tspan
                     id="tspan872"
                     y="0"
                     x="0 18.903999 37.161999 47.872002 57.324001 64.872002 84.388 101.388">net loss</tspan></text>
</g><g
                 transform="matrix(1,0,0,-1,494.6749,500.6667)"
                 id="g876"><path
                   id="path878"
                   style="fill:none;stroke:#000000;stroke-width:6;stroke-linecap:butt;stroke-linejoin:miter;stroke-miterlimit:4;stroke-dasharray:none;stroke-opacity:1"
                   d="m 0,0 h 178.0627 3" /></g><path
                 id="path880"
                 style="fill:#000000;fill-opacity:1;fill-rule:nonzero;stroke:none"
                 d="m 672.7375,488.6667 24,12 -24,12 z" /><g
                 transform="matrix(0.8638771,0.5037027,0.5037027,-0.8638771,1202.979,618.9681)"
                 id="g882"><path
                   id="path884"
                   style="fill:none;stroke:#000000;stroke-width:6;stroke-linecap:butt;stroke-linejoin:miter;stroke-miterlimit:4;stroke-dasharray:none;stroke-opacity:1"
                   d="m 0,0 h 194.5184 3" /></g><path
                 id="path886"
                 style="fill:#000000;fill-opacity:1;fill-rule:nonzero;stroke:none"
                 d="m 1377.064,706.581 14.688,22.4554 -26.777,-1.7223 z" /><g
                 transform="matrix(0.9064756,-0.4222581,-0.4222581,-0.9064756,1201.469,384.5794)"
                 id="g888"><path
                   id="path890"
                   style="fill:none;stroke:#000000;stroke-width:6;stroke-linecap:butt;stroke-linejoin:miter;stroke-miterlimit:4;stroke-dasharray:none;stroke-opacity:1"
                   d="m 0,0 h 183.9953 3" /></g><path
                 id="path892"
                 style="fill:#000000;fill-opacity:1;fill-rule:nonzero;stroke:none"
                 d="m 1363.189,296.0081 26.823,0.7436 -16.688,21.0119 z" /></g></g></g></g></g></g></svg>